<svg xmlns="http://www.w3.org/2000/svg" width="1024" height="551" viewBox="0 0 1024 551" version="1.1"><path d="M 581.553 16.750 C 579.675 18.813, 576.635 22.226, 574.796 24.336 C 571.069 28.615, 569.694 28.849, 556.375 27.481 C 549.846 26.810, 549.067 26.933, 547.056 28.944 C 545.081 30.919, 545.004 31.358, 546.285 33.319 C 547.068 34.519, 549.181 38.111, 550.979 41.302 C 555.002 48.438, 554.779 51.776, 549.605 61.929 C 545.659 69.671, 545.166 72.466, 547.582 73.393 C 550.022 74.329, 550.699 74.055, 548.750 72.920 C 546.299 71.493, 546.563 69.108, 549.750 63.880 C 551.263 61.399, 553.010 58.498, 553.633 57.434 C 554.256 56.371, 555.493 55.632, 556.383 55.794 C 558.138 56.113, 558.602 54.490, 557.033 53.520 C 555.353 52.482, 557.169 46.592, 559.888 44.261 C 561.325 43.029, 564.975 41.296, 568 40.408 C 575.814 38.116, 581.299 34.692, 585.639 29.396 L 589.402 24.803 590.522 30.410 C 591.913 37.374, 595.253 41.085, 601.719 42.851 C 608.816 44.789, 613.977 47.146, 615.017 48.923 C 615.568 49.865, 615.951 50.006, 615.970 49.273 C 616.016 47.406, 611.820 45.052, 603.254 42.138 C 596.448 39.822, 595.297 39.072, 593.840 36 C 592.884 33.985, 591.959 28.796, 591.661 23.770 C 591.376 18.968, 590.859 14.580, 590.512 14.020 C 589.122 11.771, 584.921 13.052, 581.553 16.750 M 711.500 23.884 C 706.019 26.405, 703 30.810, 703 36.285 C 703 44.418, 710.256 47.461, 719.006 42.997 C 723.462 40.724, 725.123 38.203, 725.752 32.765 C 726.129 29.496, 725.718 28.518, 722.694 25.494 C 718.724 21.524, 717.130 21.294, 711.500 23.884 M 339.264 32.986 C 330.727 38.178, 329.259 49.045, 336.364 54.464 C 340.359 57.511, 344.363 57.686, 348.759 55.005 C 355.609 50.829, 357.650 42.693, 353.454 36.289 C 350.638 31.992, 343.594 30.352, 339.264 32.986 M 236.285 40.803 C 235.617 41.227, 234.571 43.902, 233.961 46.747 C 232.513 53.498, 229.883 56.699, 224.696 58.023 C 218.507 59.602, 215 61.117, 215 62.212 C 215 62.744, 216.426 64.377, 218.168 65.840 C 223.520 70.333, 226.205 73.369, 227.592 76.500 C 228.446 78.426, 228.936 78.861, 228.961 77.715 C 229.024 74.837, 223.291 67, 221.122 67 C 220.640 67, 219.627 66.251, 218.872 65.336 C 217.624 63.823, 217.710 63.784, 219.825 64.912 C 226.456 68.445, 244.502 64.636, 243.280 59.961 C 242.985 58.834, 243.267 58, 243.942 58 C 244.593 58, 244.803 57.441, 244.412 56.750 C 243.848 55.750, 243.976 55.750, 245.053 56.750 C 245.905 57.540, 248.992 57.942, 253.450 57.843 L 260.500 57.685 253.831 57.093 C 250.163 56.767, 246.938 56.275, 246.665 56 C 246.391 55.725, 245.199 53.025, 244.015 50 C 241.651 43.956, 239.352 39.992, 238.227 40.015 C 237.827 40.024, 236.953 40.378, 236.285 40.803 M 481.750 54.681 C 477.603 55.167, 476.959 56.372, 479.981 57.990 C 483.199 59.712, 487 66.142, 487 69.864 C 487 76.722, 479.609 84.017, 472.693 83.985 C 462.734 83.939, 456.609 72.074, 461.989 63.250 C 463.079 61.462, 463.865 59.963, 463.735 59.918 C 459.333 58.379, 444.666 59.960, 434.837 63.032 C 407.563 71.556, 403.839 73.469, 401.899 79.941 C 401.231 82.174, 400.230 84, 399.675 84 C 399.120 84, 398.971 84.304, 399.342 84.676 C 399.714 85.048, 399.002 86.507, 397.759 87.919 C 395.925 90.002, 395.884 90.164, 397.540 88.778 C 399.480 87.154, 399.587 87.167, 399.729 89.057 C 399.812 90.149, 399.456 90.782, 398.939 90.463 C 398.423 90.143, 398 90.321, 398 90.858 C 398 91.394, 398.549 92.016, 399.220 92.240 C 401.018 92.839, 400.423 100.562, 398.258 104.734 C 395.771 109.527, 388.305 113.427, 381.535 113.469 C 376.668 113.499, 376.510 113.411, 376.809 110.844 C 377.165 107.789, 373.543 103.738, 371.055 104.407 C 364.309 106.221, 356.803 105.766, 346.777 102.934 C 342.351 101.683, 341.912 101.734, 339.777 103.739 C 338.525 104.915, 333.173 108.718, 327.884 112.189 C 318.237 118.520, 315.270 121.354, 311.154 128.167 L 308.939 131.834 315.720 132.569 C 319.449 132.973, 344.550 133.042, 371.500 132.722 C 419.614 132.152, 424.102 132.313, 436.812 135.061 C 442.538 136.299, 443.604 136.254, 448.312 134.576 C 453.176 132.842, 458.887 132.706, 539.867 132.384 C 587.369 132.196, 629.046 132.439, 632.481 132.926 C 643.265 134.453, 657.287 141.183, 666.543 149.273 L 670.860 153.047 677.089 149.021 C 685.113 143.835, 692.073 140.568, 704.648 136.084 L 714.796 132.466 699.343 120.523 C 690.843 113.955, 679.526 105.635, 674.194 102.034 C 668.863 98.433, 662.925 94.306, 661 92.862 C 659.075 91.419, 653.900 88.316, 649.500 85.967 C 645.100 83.619, 639.896 80.687, 637.935 79.453 C 635.973 78.218, 630.655 75.340, 626.115 73.058 C 619.328 69.645, 616.984 68.947, 612.930 69.132 C 610.219 69.256, 608 69.754, 608 70.238 C 608 70.722, 607.573 70.854, 607.051 70.531 C 605.944 69.847, 605.281 73.559, 604.645 84 C 604.394 88.125, 603.619 92.749, 602.923 94.275 C 601.046 98.387, 595.781 101.231, 590.045 101.231 C 584.030 101.231, 580.737 99.313, 575.309 92.647 C 573.003 89.816, 570.303 86.504, 569.309 85.287 C 567.541 83.124, 567.363 83.108, 561.500 84.561 C 544.337 88.818, 534.901 85.189, 533.408 73.758 C 532.871 69.651, 533.617 66.639, 537.308 58 L 538.803 54.500 512.151 54.371 C 497.493 54.300, 483.813 54.439, 481.750 54.681 M 213.687 81.089 C 213.049 83.530, 213.564 85, 215.059 85 C 216.224 85, 216.265 81.966, 215.123 80.165 C 214.489 79.164, 214.130 79.395, 213.687 81.089 M 458.380 147.195 C 458.144 147.577, 460.638 150.568, 463.923 153.843 C 470.044 159.945, 475.627 167.857, 479.063 175.298 C 480.130 177.609, 480.728 178.375, 480.393 177 C 478.493 169.223, 468.948 155.633, 462.348 151.308 C 461.057 150.462, 460 149.100, 460 148.282 C 460 146.994, 462.711 146.878, 480.250 147.419 C 511.194 148.373, 514.634 148.756, 517.691 151.590 L 520.292 154 515.396 154.006 C 504.475 154.018, 498 158.107, 498 164.991 C 498 171.461, 499.470 172.001, 517.079 171.994 C 538.791 171.987, 541.846 170.805, 543.422 161.811 C 543.908 159.036, 544.927 157.590, 547.536 155.978 C 550.852 153.928, 551.776 153.862, 568.752 154.462 C 598.524 155.513, 602.411 155.532, 604.896 154.636 C 607.085 153.847, 607.230 153.977, 606.572 156.136 C 603.809 165.200, 605.240 172.022, 610.223 173.543 C 611.476 173.926, 615.755 176.252, 619.733 178.712 C 628.080 183.875, 633.466 185.051, 637.288 182.547 C 646.423 176.561, 640.075 162.104, 625.679 156.109 C 621.163 154.229, 619.392 153.064, 620.438 152.662 C 621.307 152.329, 621.902 151.481, 621.759 150.778 C 621.565 149.822, 623.388 149.535, 629 149.640 C 637.836 149.804, 643.479 151.943, 651.858 158.304 C 659.088 163.793, 661.242 165.032, 657.708 161.672 C 651.351 155.628, 642.946 150.890, 635.224 148.998 C 628.012 147.231, 621.911 147.086, 543.155 146.803 C 496.764 146.636, 458.616 146.813, 458.380 147.195 M 730.500 154.633 C 729.400 154.854, 724.287 156.230, 719.138 157.690 C 706.978 161.139, 702.536 164.837, 703.538 170.674 C 704.232 174.717, 707.089 178, 709.914 178 C 710.844 178, 715.857 176.883, 721.053 175.519 C 726.249 174.154, 731.657 173.029, 733.072 173.019 C 734.486 173.008, 737.761 172.278, 740.350 171.397 C 751.895 167.463, 749.339 153.809, 737.115 154.116 C 734.577 154.180, 731.600 154.413, 730.500 154.633 M 767.277 155.973 C 761.506 159.492, 761.919 165.646, 768.242 170.342 C 770.856 172.284, 771.144 172.302, 774.443 170.729 C 781.429 167.397, 782.793 160.342, 777.288 156.012 C 774.073 153.483, 771.378 153.472, 767.277 155.973 M 254.209 157.643 C 246.651 161.424, 245.173 167.836, 250.752 172.634 C 255.037 176.319, 260.318 175.882, 264.721 171.479 C 267.751 168.449, 268.154 167.509, 267.609 164.729 C 266.126 157.154, 260.807 154.342, 254.209 157.643 M 399.523 157.565 C 395.815 159.498, 395.035 160.703, 395.015 164.527 C 394.984 170.788, 399.723 174.213, 410.216 175.513 C 415.672 176.190, 416.070 176.084, 418.966 173.188 C 420.635 171.519, 422 169.197, 422 168.027 C 422 164.988, 419.475 160.519, 416.385 158.088 C 413.110 155.512, 404.002 155.229, 399.523 157.565 M 797.250 163.115 C 794.600 164.812, 794 165.842, 794 168.694 C 794 173.288, 796.642 177.602, 800.607 179.484 C 805.140 181.635, 806.759 181.394, 810.077 178.077 C 814.304 173.850, 814.132 168.932, 809.600 164.400 C 805.598 160.398, 802.067 160.030, 797.250 163.115 M 218.233 167.123 C 213.581 168.466, 206.428 175.697, 205.160 180.341 C 201.892 192.307, 214.404 199.843, 225.161 192.389 C 231.407 188.060, 233.961 181.282, 232.037 174.137 C 230.844 169.707, 226.912 165.950, 223.615 166.090 C 222.452 166.140, 220.030 166.605, 218.233 167.123 M 854.125 270.241 C 852.819 271.823, 850.650 273.839, 849.304 274.720 C 846.816 276.350, 833.120 279.174, 831.750 278.339 C 830.353 277.488, 830.990 279.747, 832.500 281 C 833.325 281.685, 834 281.916, 834 281.513 C 834 280.626, 838.968 287.436, 847.018 299.359 C 850.308 304.232, 853 308.845, 853 309.609 C 853 310.374, 853.450 311, 854 311 C 854.550 311, 855.007 310.438, 855.015 309.750 C 855.025 308.920, 855.350 309.004, 855.979 310 C 856.822 311.333, 857.081 311.333, 858.309 310 C 859.416 308.797, 859.516 306.618, 858.814 299 C 858.333 293.775, 857.615 284.520, 857.219 278.432 L 856.500 267.365 854.125 270.241 M 204.122 279.813 C 202.264 284.591, 198.594 294.575, 195.967 302 C 177.760 353.459, 178.122 352.103, 179.541 363.562 C 179.990 367.187, 180.766 368.997, 182.276 369.940 C 184.155 371.114, 184.616 370.965, 186.529 368.566 C 191.121 362.807, 194.135 348.256, 194.153 331.755 C 194.166 319.976, 196.281 307.437, 198.068 308.542 C 199.004 309.120, 200.240 304.198, 199.472 302.954 C 199.147 302.429, 199.359 302, 199.941 302 C 200.523 302, 201 300.986, 201 299.746 C 201 297.117, 205.608 283.992, 207.030 282.570 C 207.564 282.036, 208 281.970, 208 282.422 C 208 282.875, 208.675 282.685, 209.500 282 C 211.728 280.151, 211.377 281.408, 207.313 289.846 C 202.679 299.468, 201.558 309.385, 204.777 312.298 C 205.863 313.281, 208.270 314.332, 210.126 314.633 C 216.842 315.723, 221.097 309.527, 225.500 292.241 C 228.996 278.519, 228.873 276.263, 224.532 274.449 C 222.625 273.652, 218.440 273, 215.232 273 C 212.024 273, 208.972 272.578, 208.450 272.063 C 207.853 271.474, 206.244 274.356, 204.122 279.813 M 619.321 296.780 C 618.601 297.238, 617.322 305.561, 616.037 318.134 C 614.381 334.354, 614.162 339.759, 615.009 343.539 C 615.600 346.179, 615.804 349.725, 615.460 351.420 C 614.901 354.182, 615.208 353.960, 618.428 349.276 C 622.554 343.272, 637.111 331.114, 644.575 327.437 C 647.907 325.795, 652.373 324.679, 657.575 324.186 C 665.066 323.477, 665.269 323.396, 661.284 322.711 C 658.413 322.218, 657.228 321.570, 657.569 320.681 C 657.887 319.853, 656.134 318.482, 652.785 316.937 C 649.660 315.496, 644.194 311.340, 639.410 306.766 C 629.766 297.546, 623.228 294.296, 619.321 296.780 M 447.500 300.958 C 443.650 301.324, 439.434 302.202, 438.131 302.910 C 436.070 304.030, 435.824 304.750, 436.242 308.451 C 436.505 310.790, 437.674 314.008, 438.839 315.602 C 441.303 318.975, 442.884 326.064, 446.399 349.500 C 447.801 358.850, 449.421 368.075, 449.997 370 C 454.052 383.535, 456.376 401.695, 455.691 414.483 C 454.617 434.516, 448.967 446.392, 433.744 460.616 C 422.668 470.965, 409.573 476, 393.736 476 C 376.177 476, 365.778 471.495, 351.228 457.585 C 346.077 452.661, 340.267 446.228, 338.316 443.289 C 333.700 436.334, 326.250 419.133, 326.485 415.969 C 326.678 413.360, 319.560 392.170, 317.946 390.550 C 317.426 390.027, 317 389.927, 317 390.326 C 317 390.725, 315.672 390.365, 314.050 389.526 C 312.427 388.687, 310.868 388, 310.585 388 C 309.498 388, 307.511 393.019, 301.308 411.439 C 297.777 421.922, 293.114 433.741, 290.944 437.703 C 288.775 441.664, 287 445.314, 287 445.814 C 287 446.313, 289.363 447.418, 292.250 448.269 C 295.137 449.120, 302.723 451.424, 309.106 453.389 C 315.489 455.354, 323.708 457.657, 327.370 458.506 C 333.109 459.837, 349.566 465.984, 359.612 470.549 C 367.321 474.052, 367.261 477.513, 359.039 503.388 C 356.786 510.477, 355.068 516.361, 355.221 516.464 C 366.159 523.851, 387.767 534.743, 403 540.548 C 408.225 542.539, 413.438 545.193, 414.583 546.446 C 415.729 547.699, 418.204 549.091, 420.083 549.539 C 421.963 549.987, 477.368 550.503, 543.207 550.685 L 662.915 551.016 671.944 546.366 C 676.911 543.809, 682.886 539.951, 685.223 537.794 C 687.560 535.636, 690.941 532.964, 692.736 531.854 C 694.531 530.745, 696 529.391, 696 528.847 C 696 528.303, 696.675 527.182, 697.500 526.357 C 699.931 523.926, 699.304 523.503, 693.176 523.444 C 687.216 523.387, 682.711 521.417, 677.505 516.592 C 672.092 511.576, 670.313 499.309, 673.865 491.491 C 675.814 487.201, 682.121 481, 684.535 481 C 685.341 481, 686 480.550, 686 480 C 686 479.450, 684.987 478.993, 683.750 478.985 C 680.379 478.961, 665.446 472.011, 657.500 466.768 C 648.209 460.637, 641.238 453.427, 634.034 442.500 C 630.771 437.550, 627.291 432.395, 626.300 431.045 C 625.310 429.694, 622.328 425.419, 619.674 421.545 C 617.020 417.670, 614.332 414.500, 613.701 414.500 C 613.044 414.500, 611.824 418.438, 610.847 423.715 C 608.566 436.033, 603.866 445.426, 593.853 457.680 C 586.819 466.289, 583.774 468.754, 574.446 473.393 C 548.195 486.448, 524.284 484.461, 503.745 467.519 C 495.149 460.429, 490.876 454.253, 487.127 443.500 C 485.401 438.550, 481.334 429.325, 478.089 423 C 474.845 416.675, 471.192 408.575, 469.972 405 C 467.644 398.174, 467.514 394.131, 467.083 315.250 L 467 300 460.750 300.147 C 457.313 300.227, 451.350 300.592, 447.500 300.958 M 649.255 350.031 C 641.916 353.698, 639.897 356.491, 639.846 363.046 C 639.750 375.504, 648.407 379.970, 659.813 373.347 C 665.453 370.071, 667.992 365.818, 667.996 359.632 C 668 355.309, 667.566 354.331, 664.118 350.882 C 659.383 346.148, 657.267 346.027, 649.255 350.031 M 598.714 467.837 C 594.862 469.856, 592.656 472.162, 587.750 479.300 C 585.478 482.605, 585.004 484.362, 585.022 489.400 C 585.050 497.122, 587.354 502.266, 593.183 507.618 C 598.714 512.696, 603.483 514.350, 611.016 513.805 C 622.266 512.991, 629.918 504.942, 630.760 493.034 C 631.382 484.244, 629.819 479.086, 625.044 474.165 C 619.768 468.729, 615.774 466.823, 608.545 466.295 C 603.838 465.951, 601.662 466.292, 598.714 467.837 M 438 468.735 C 435.852 469.560, 429.809 474.150, 427.776 476.500 C 422.686 482.384, 420.560 495.606, 423.549 502.782 C 425.482 507.421, 431.329 513.565, 436.210 516.085 C 440.744 518.425, 448.651 518.590, 453.768 516.452 C 463.541 512.369, 469.937 500.655, 468.532 489.413 C 466.988 477.049, 457.033 468.042, 445 468.122 C 441.975 468.142, 438.825 468.417, 438 468.735 M 710.449 487.345 C 713.519 491.369, 716 498.668, 716 503.673 C 716 505.518, 714.656 509.834, 713.013 513.264 C 711.371 516.694, 710.021 519.111, 710.013 518.635 C 710.006 518.159, 708.763 518.581, 707.250 519.573 C 705.737 520.565, 703.375 521.964, 702 522.682 C 699.511 523.982, 699.515 523.988, 703.029 523.994 C 705.279 523.998, 707.026 523.351, 707.849 522.209 C 708.761 520.944, 710.100 520.530, 712.409 520.800 C 716.715 521.302, 725.185 515.945, 730.516 509.347 C 732.670 506.681, 734.741 504.275, 735.118 504 C 740.203 500.295, 752 489.347, 752 488.335 C 752 487.284, 748.955 487, 737.684 487 C 725.052 487, 715.639 486.106, 709.615 484.334 C 708.029 483.867, 708.161 484.344, 710.449 487.345 M 810.947 494.641 C 805.355 500.064, 798.489 507.200, 795.691 510.500 C 792.389 514.393, 794.401 512.726, 801.420 505.750 C 807.370 499.837, 812.747 494.984, 813.369 494.964 C 816.126 494.876, 823.084 486.751, 821.639 485.306 C 821.351 485.018, 816.540 489.219, 810.947 494.641 M 186.898 494.282 C 181.064 498.201, 182.146 505, 188.602 505 C 191.930 505, 196.304 499.349, 195.489 496.102 C 194.325 491.462, 191.871 490.942, 186.898 494.282" stroke="none" fill="#fff58d" fill-rule="evenodd"/><path d="M 273.323 146.750 C 292.476 146.902, 323.526 146.902, 342.323 146.749 C 361.120 146.597, 345.450 146.473, 307.500 146.473 C 269.550 146.473, 254.170 146.598, 273.323 146.750 M 462.529 178.502 C 464.275 193.296, 452.839 213.220, 438.270 220.765 C 427.130 226.534, 418.590 228.999, 409.690 229.014 C 398.022 229.033, 396.974 229.424, 398.096 233.335 C 399.280 237.463, 399.246 242.672, 398.021 244.961 C 397.454 246.020, 394.948 247.293, 392.070 247.983 C 389.336 248.639, 386.579 249.802, 385.944 250.567 C 385.051 251.644, 385.964 256.660, 389.979 272.729 C 392.833 284.153, 396.714 298.225, 398.604 304 C 400.493 309.775, 403.406 319.900, 405.077 326.500 C 406.748 333.100, 409.716 343.596, 411.673 349.824 C 415.630 362.413, 415.635 364.644, 411.733 376 C 407.904 387.145, 398.486 394.308, 383.483 397.486 C 365.950 401.200, 353.750 397.212, 342.119 383.964 C 338.168 379.465, 336.230 377.968, 334.830 378.334 C 333.677 378.636, 332.102 377.976, 330.848 376.667 C 328.875 374.607, 328.801 374.598, 329.347 376.500 C 329.663 377.600, 330.873 382.100, 332.035 386.500 C 335.060 397.948, 342.813 413.356, 349.042 420.298 C 371.507 445.332, 407.233 441.668, 424.900 412.517 C 430.099 403.939, 432.147 395.441, 432.254 382 C 432.314 374.398, 431.806 368.466, 430.755 364.500 C 429.196 358.622, 427.129 351.011, 423.013 336 C 421.882 331.875, 419.677 323.775, 418.113 318 C 416.549 312.225, 413.798 302.100, 411.999 295.500 C 410.201 288.900, 407.305 277.895, 405.563 271.044 L 402.397 258.588 396.812 256.931 C 390.155 254.954, 385.921 252.342, 388.077 251.542 C 394.256 249.247, 407.586 246.773, 418.137 245.962 C 430.681 244.998, 434.446 244.125, 443.149 240.160 C 452.176 236.048, 462.965 223.913, 466.605 213.779 C 469.679 205.221, 467.855 183.840, 463.384 176.026 C 462.016 173.636, 461.970 173.768, 462.529 178.502 M 189 212.454 C 189 212.914, 190.563 216.541, 192.474 220.514 C 197.989 231.980, 208.786 241.063, 220.227 243.861 C 227.161 245.557, 246.754 246.991, 260.500 246.809 C 267.100 246.722, 270.497 246.474, 268.050 246.258 C 265.026 245.991, 264.048 245.589, 264.998 245.001 C 266.036 244.360, 265.636 243.969, 263.448 243.485 C 258.355 242.358, 257.778 242.022, 258.355 240.516 C 258.665 239.709, 258.280 237.520, 257.499 235.652 C 256.718 233.783, 256.399 231.900, 256.790 231.467 C 257.180 231.034, 256.969 230.984, 256.319 231.356 C 255.670 231.728, 254.897 231.642, 254.602 231.164 C 254.306 230.687, 248.375 229.980, 241.421 229.593 C 224.822 228.671, 220.238 227.744, 208.430 222.921 C 197.778 218.570, 192.228 215.589, 190.250 213.155 C 189.563 212.310, 189 211.994, 189 212.454" stroke="none" fill="#017bfc" fill-rule="evenodd"/><path d="M 746.298 26.811 C 742.693 31.687, 738.295 41.293, 737.056 47 C 735.433 54.473, 734.618 74.130, 735.857 75.931 C 736.660 77.098, 738.102 76.415, 743.671 72.232 C 755.403 63.420, 755.859 63.008, 756.183 60.940 C 756.564 58.510, 758.378 58.009, 758.803 60.216 C 759.143 61.981, 753.488 67.561, 744.500 74.329 C 737.402 79.674, 735.972 81.692, 737.108 84.762 C 738.318 88.033, 741.015 87.541, 748.136 82.750 C 758.653 75.675, 762.521 69.115, 763.692 56.366 C 764.608 46.395, 760.446 33.403, 754.205 26.750 C 750.932 23.260, 748.911 23.276, 746.298 26.811 M 302.500 146.981 C 228.553 147.500, 228.495 147.502, 222.174 149.786 C 208.758 154.635, 198.558 163.135, 193.121 173.998 C 188.241 183.749, 186.579 191.326, 187.309 200.500 C 188.369 213.831, 190.110 215.626, 209.500 223.377 C 220.538 227.790, 225.152 228.689, 241.365 229.590 C 248.350 229.978, 254.306 230.687, 254.602 231.164 C 254.897 231.642, 255.670 231.728, 256.319 231.356 C 256.969 230.984, 257.180 231.034, 256.790 231.467 C 256.399 231.900, 256.718 233.783, 257.499 235.652 C 258.280 237.520, 258.665 239.709, 258.355 240.516 C 257.780 242.017, 258.277 242.309, 263.500 243.540 C 265.498 244.010, 265.999 244.438, 265 244.818 C 264.175 245.133, 267.359 245.913, 272.075 246.553 C 279.004 247.492, 281.709 248.392, 286.162 251.241 C 291.015 254.345, 292.163 255.766, 295.773 263.133 C 302.750 277.375, 318.542 331.690, 317.831 339 C 317.244 345.029, 318.143 348.009, 321.505 351.187 C 324.583 354.096, 325.291 355.754, 327.314 364.786 C 329.778 375.788, 331.643 379.168, 334.795 378.343 C 336.240 377.966, 338.116 379.406, 342.119 383.964 C 353.750 397.212, 365.950 401.200, 383.483 397.486 C 398.486 394.308, 407.904 387.145, 411.733 376 C 415.635 364.644, 415.630 362.413, 411.673 349.824 C 409.716 343.596, 406.748 333.100, 405.077 326.500 C 403.406 319.900, 400.493 309.775, 398.604 304 C 396.714 298.225, 392.833 284.153, 389.979 272.729 C 385.964 256.660, 385.051 251.644, 385.944 250.567 C 386.579 249.802, 389.336 248.639, 392.070 247.983 C 394.948 247.293, 397.454 246.020, 398.021 244.961 C 399.246 242.672, 399.280 237.463, 398.096 233.335 C 396.974 229.424, 398.022 229.033, 409.690 229.014 C 415.981 229.003, 419.577 228.391, 425.190 226.376 C 442.593 220.130, 451.554 212.914, 457.545 200.321 C 464.271 186.181, 464.413 177.036, 458.058 167.221 C 453.172 159.674, 448.108 155.382, 439.279 151.302 C 429.775 146.912, 422.256 146.015, 397 146.262 C 385.725 146.372, 343.200 146.696, 302.500 146.981 M 253.208 157.181 C 249.080 159.182, 246 163.158, 246 166.486 C 246 170.975, 252.319 176, 257.965 176 C 261.227 176, 267.754 170.832, 268.070 168 C 268.539 163.790, 267.754 160.861, 265.411 158.077 C 262.326 154.411, 259.369 154.193, 253.208 157.181 M 400.021 156.116 C 395.512 157.915, 394 160.045, 394 164.599 C 394 171.243, 396.798 173.771, 406.259 175.674 C 415.328 177.498, 419.142 176.559, 421.547 171.909 C 423.409 168.309, 423.376 166.629, 421.370 162.749 C 419.460 159.055, 418.244 157.736, 415.295 156.158 C 412.692 154.765, 403.471 154.739, 400.021 156.116 M 218.239 166.335 C 209.877 169.368, 204.010 176.793, 204.004 184.350 C 204 188.567, 204.459 189.659, 207.519 192.719 C 210.890 196.090, 211.284 196.220, 216.921 195.812 C 226.963 195.086, 233.355 188.370, 233.398 178.500 C 233.423 172.784, 230.947 167.752, 227.288 166.085 C 224.365 164.754, 222.454 164.806, 218.239 166.335 M 825.116 487.360 C 823.954 488.760, 824.052 489.699, 825.782 493.751 C 828.135 499.260, 830.737 520.663, 829.237 522.163 C 828.716 522.684, 825.809 523.300, 822.777 523.530 C 819.623 523.770, 815.116 525.029, 812.238 526.474 C 809.472 527.864, 805.925 529.014, 804.355 529.030 C 798.475 529.093, 804.631 530.766, 818.500 532.874 C 844.058 536.760, 847.170 537.164, 847.677 536.656 C 847.954 536.379, 846.600 532.631, 844.668 528.326 C 842.736 524.022, 839.155 515.550, 836.710 509.500 C 834.265 503.450, 830.963 495.624, 829.371 492.110 C 826.805 486.442, 826.324 485.905, 825.116 487.360" stroke="none" fill="#14d6ff" fill-rule="evenodd"/><path d="M 585.639 29.396 C 581.299 34.692, 575.814 38.116, 568 40.408 C 564.975 41.296, 561.325 43.029, 559.888 44.261 C 557.169 46.592, 555.353 52.482, 557.033 53.520 C 558.610 54.495, 558.134 56.112, 556.363 55.794 C 553.858 55.344, 546.252 68.610, 547.360 71.497 C 548.095 73.411, 552.347 73.059, 562 70.283 C 565.025 69.414, 568.249 68.738, 569.163 68.782 C 571.742 68.907, 575.793 72.900, 580.333 79.791 C 584.613 86.287, 587.809 88.233, 590.513 85.989 C 591.641 85.053, 592 82.425, 592 75.100 C 592 62.083, 593.505 60.217, 607.763 55.552 C 619.762 51.627, 617.657 47.203, 601.719 42.851 C 595.253 41.085, 591.913 37.374, 590.522 30.410 L 589.402 24.803 585.639 29.396 M 244.412 56.750 C 244.803 57.441, 244.593 58, 243.942 58 C 243.267 58, 242.985 58.834, 243.280 59.961 C 244.502 64.636, 226.456 68.445, 219.825 64.912 C 217.710 63.784, 217.624 63.823, 218.872 65.336 C 219.627 66.251, 220.640 67, 221.122 67 C 222.248 67, 225.035 69.815, 227.170 73.108 C 228.461 75.100, 228.712 77.080, 228.281 81.842 C 227.608 89.260, 228.369 89.553, 235.995 84.813 C 241.115 81.630, 241.131 81.627, 247.311 82.911 C 250.715 83.618, 254.287 84.351, 255.250 84.541 C 257.180 84.921, 257.699 82.099, 256.010 80.410 C 255.465 79.865, 254.725 77.271, 254.365 74.645 C 253.733 70.037, 253.856 69.723, 257.891 65.611 C 263.822 59.568, 262.936 58, 253.593 58 C 249.224 58, 245.871 57.509, 245.053 56.750 C 243.976 55.750, 243.848 55.750, 244.412 56.750 M 816.500 74.693 C 813.249 75.542, 811.659 77.171, 813.171 78.105 C 814.112 78.687, 813.833 79.410, 812.083 80.928 C 810.026 82.712, 809.904 83.184, 811.115 84.677 C 812.312 86.152, 812.296 86.278, 811 85.603 C 810.175 85.173, 811.181 86.437, 813.235 88.411 C 815.290 90.385, 817.810 92, 818.836 92 C 821.850 92, 826.654 90.021, 826.822 88.710 C 828.075 78.968, 828.077 77.309, 826.836 76.283 C 825.181 74.915, 819.185 73.993, 816.500 74.693 M 387.362 98.500 C 387.045 99.325, 386.244 100, 385.582 100 C 384.919 100, 383.411 100.900, 382.230 102 C 380.879 103.259, 378.701 104, 376.353 104 L 372.623 104 374.811 106.039 C 376.015 107.160, 377 108.448, 377 108.900 C 377 109.353, 378.055 109.521, 379.345 109.274 C 381.206 108.919, 381.594 108.329, 381.228 106.413 C 380.869 104.534, 381.196 104, 382.703 104 C 383.768 104, 385.618 102.875, 386.813 101.500 C 388.009 100.125, 389.440 99, 389.993 99 C 390.547 99, 391 98.550, 391 98 C 391 96.423, 388.001 96.835, 387.362 98.500 M 460 148.282 C 460 149.100, 461.025 150.441, 462.277 151.262 C 469.918 156.268, 478.073 168.550, 480.955 179.392 C 483.141 187.615, 483.532 207.795, 481.638 214.691 C 480.337 219.428, 480.363 220.018, 481.935 221.441 C 482.882 222.298, 483.932 223, 484.267 223 C 484.602 223, 486.286 224.288, 488.010 225.862 L 491.143 228.723 489.438 240.112 C 488.292 247.766, 486.716 253.795, 484.632 258.500 L 481.531 265.500 481.208 318.459 C 480.878 372.603, 481.081 376, 484.632 376 C 485.344 376, 488.536 379.473, 491.725 383.717 C 501.549 396.791, 511.295 402.352, 526.691 403.668 C 536.377 404.497, 544.802 402.700, 554.274 397.786 C 564.122 392.676, 569.248 387.038, 572.168 378.103 C 574.282 371.636, 574.328 370.208, 574.413 308.664 L 574.500 245.828 576.861 243.914 C 579.904 241.447, 582.397 241.494, 585.902 244.085 C 588.362 245.904, 589.219 246.033, 592.611 245.091 C 594.750 244.497, 597.770 244.009, 599.322 244.006 L 602.144 244 601.468 238.591 C 600.849 233.635, 600.989 233.055, 603.146 231.660 C 604.574 230.736, 611.139 229.522, 619.839 228.573 C 633.224 227.113, 634.702 226.736, 642.068 222.904 C 651.794 217.844, 658.011 211.651, 662.586 202.467 C 665.937 195.740, 668.241 185.824, 668.211 178.257 C 668.195 174.231, 663.813 166.566, 660.204 164.252 C 658.717 163.299, 654.961 160.607, 651.858 158.270 C 643.437 151.928, 637.810 149.804, 629 149.640 C 623.388 149.535, 621.565 149.822, 621.759 150.778 C 621.902 151.481, 621.307 152.329, 620.438 152.662 C 619.392 153.064, 621.163 154.229, 625.679 156.109 C 640.075 162.104, 646.423 176.561, 637.288 182.547 C 633.466 185.051, 628.080 183.875, 619.733 178.712 C 615.755 176.252, 611.476 173.926, 610.223 173.543 C 605.240 172.022, 603.809 165.200, 606.572 156.136 C 607.230 153.977, 607.085 153.847, 604.896 154.636 C 602.411 155.532, 598.524 155.513, 568.752 154.462 C 551.776 153.862, 550.852 153.928, 547.536 155.978 C 544.927 157.590, 543.908 159.036, 543.422 161.811 C 541.844 170.819, 538.805 171.987, 516.905 171.994 C 499.328 172.001, 498 171.496, 498 164.817 C 498 158.119, 504.598 154.018, 515.396 154.006 L 520.292 154 517.691 151.590 C 514.634 148.756, 511.194 148.373, 480.250 147.419 C 462.711 146.878, 460 146.994, 460 148.282 M 208.249 271.259 C 208.510 272.049, 210.990 272.564, 215.079 272.677 C 220.304 272.821, 220.848 272.704, 218 272.049 C 209.759 270.151, 207.832 269.995, 208.249 271.259 M 224.750 274.491 C 228.844 276.270, 228.947 278.711, 225.500 292.241 C 221.097 309.527, 216.842 315.723, 210.126 314.633 C 208.270 314.332, 205.863 313.281, 204.777 312.298 C 201.558 309.385, 202.679 299.468, 207.313 289.846 C 211.377 281.408, 211.728 280.151, 209.500 282 C 208.675 282.685, 208 282.875, 208 282.422 C 208 281.970, 207.564 282.036, 207.030 282.570 C 205.608 283.992, 201 297.117, 201 299.746 C 201 300.986, 200.523 302, 199.941 302 C 199.359 302, 199.147 302.429, 199.472 302.954 C 200.240 304.198, 199.004 309.120, 198.068 308.542 C 196.281 307.437, 194.166 319.976, 194.153 331.755 C 194.135 348.360, 191.122 362.806, 186.455 368.659 C 184.525 371.079, 184.023 371.264, 182.594 370.078 C 179.665 367.647, 179.759 369.709, 182.876 376.241 C 187.439 385.801, 192.855 391.368, 201.840 395.732 C 209.177 399.296, 209.921 399.450, 219.500 399.373 C 230.539 399.285, 243.944 396.434, 249.516 392.990 C 254.028 390.201, 260.292 381.785, 264.039 373.478 C 272.659 354.361, 274.022 352, 276.432 352 C 277.710 352, 279.315 352.675, 280 353.500 C 281.383 355.167, 283.652 355.491, 284.167 354.096 C 284.350 353.599, 290.575 352.667, 298 352.025 C 305.425 351.383, 312.034 350.690, 312.686 350.485 C 313.527 350.220, 313.308 348.944, 311.936 346.104 C 310.871 343.900, 310 341.631, 310 341.062 C 310 339.276, 302.680 320.986, 302.170 321.497 C 301.903 321.764, 301.119 321.514, 300.429 320.941 C 299.541 320.204, 298.809 320.289, 297.932 321.228 C 297.088 322.131, 295.216 322.388, 292.095 322.029 L 287.500 321.500 287.841 317.640 C 288.430 310.962, 287.108 307.384, 281.220 299.719 C 274.835 291.407, 271.382 288.228, 265.498 285.243 C 258.221 281.551, 235.477 275.248, 231.050 275.697 C 230.252 275.778, 228.362 275.204, 226.850 274.422 C 225.337 273.640, 223.514 273.018, 222.800 273.039 C 222.085 273.061, 222.963 273.714, 224.750 274.491 M 437.736 301.692 C 434.744 302.472, 432.752 307.617, 433.613 312.341 C 434.031 314.628, 434.258 317.108, 434.119 317.850 C 433.968 318.658, 434.338 318.909, 435.040 318.475 C 435.876 317.959, 436.006 318.405, 435.492 320.026 C 434.897 321.898, 435.070 322.187, 436.466 321.651 C 437.400 321.293, 438.577 321, 439.082 321 C 440.698 321, 440.066 318.369, 438 316.500 C 436.471 315.116, 436 313.420, 436 309.297 C 436 304.168, 436.160 303.834, 439.250 302.491 C 442.344 301.146, 441.512 300.707, 437.736 301.692 M 655.500 316.922 C 653.580 317.673, 653.592 317.733, 655.822 318.442 C 657.195 318.879, 657.934 319.728, 657.631 320.520 C 657.272 321.456, 658.620 322.182, 662.108 322.930 C 667.893 324.170, 674.008 324.335, 673.982 323.250 C 673.972 322.837, 671.727 321.038, 668.994 319.250 C 664.015 315.995, 659.754 315.260, 655.500 316.922 M 612.307 337.709 C 611.687 339.794, 610.449 343.464, 609.556 345.864 C 608.662 348.264, 607.807 351.741, 607.655 353.591 C 607.503 355.441, 607.069 357.264, 606.690 357.644 C 606.310 358.023, 606.007 358.821, 606.015 359.417 C 606.024 360.013, 606.467 359.825, 607 359 C 607.828 357.718, 607.972 357.754, 607.985 359.250 C 607.993 360.252, 607.252 361.005, 606.250 361.011 C 602.690 361.035, 600.898 367.518, 601.212 379.238 L 601.500 389.977 604.385 388.478 C 606.724 387.262, 607.564 387.217, 608.827 388.239 C 609.683 388.933, 610.127 389.050, 609.812 388.500 C 608.521 386.242, 611.037 365.266, 613.530 357.500 C 616.003 349.795, 616.049 349.212, 614.766 341.709 L 613.435 333.919 612.307 337.709 M 177.447 359.278 C 177.083 360.225, 177.486 362.687, 178.341 364.750 L 179.897 368.500 179.933 364.500 C 179.977 359.687, 178.489 356.562, 177.447 359.278 M 309.513 386.622 C 307.651 391.079, 307.596 391.935, 309.322 389.574 C 310.582 387.852, 310.804 387.847, 313.968 389.483 L 317.290 391.201 316.645 387.976 C 316.290 386.202, 316 384.356, 316 383.875 C 316 383.394, 314.881 383, 313.513 383 C 311.601 383, 310.677 383.836, 309.513 386.622 M 455.374 408.500 C 455.376 414.550, 455.541 416.896, 455.740 413.713 C 455.939 410.531, 455.937 405.581, 455.736 402.713 C 455.535 399.846, 455.372 402.450, 455.374 408.500 M 279.914 484.926 L 273.328 507.844 276.914 509.333 C 279.715 510.496, 296.781 515.618, 311.042 519.575 C 312.623 520.014, 313.507 517.682, 316.568 505 C 317.298 501.975, 318.627 496.800, 319.521 493.500 C 322.210 483.569, 323.270 478.655, 323.388 475.561 C 323.491 472.861, 323.095 472.509, 318.500 471.219 C 315.750 470.448, 311.250 469.010, 308.500 468.024 C 300.948 465.318, 289.631 461.999, 287.972 462.004 C 286.911 462.007, 284.659 468.413, 279.914 484.926 M 723.768 486.725 C 725.565 486.947, 728.265 486.943, 729.768 486.715 C 731.271 486.486, 729.800 486.304, 726.500 486.310 C 723.200 486.315, 721.971 486.502, 723.768 486.725 M 818.104 491.561 C 816.237 493.452, 814.204 495, 813.587 495 C 812.080 495, 783 523.780, 783 525.272 C 783 525.522, 785.587 526.270, 788.750 526.933 C 793.952 528.025, 794.929 527.944, 799 526.081 C 804.398 523.612, 807.170 521.417, 809.457 517.801 C 810.401 516.307, 812.802 514.578, 814.832 513.930 C 816.849 513.285, 818.891 512.400, 819.368 511.961 C 819.845 511.523, 821.750 511.410, 823.600 511.710 C 826.177 512.128, 827.117 511.858, 827.617 510.556 C 829.014 506.916, 824.301 487.819, 822.065 488.061 C 821.754 488.095, 819.972 489.670, 818.104 491.561" stroke="none" fill="#ffec11" fill-rule="evenodd"/><path d="M 828.070 80.750 C 827.977 85.076, 827.949 85.228, 826.866 87.250 C 826.168 88.555, 826.311 89, 827.430 89 C 830.143 89, 831.097 85.562, 829.552 81.349 L 828.141 77.500 828.070 80.750 M 464.250 145.728 C 466.313 145.944, 469.688 145.944, 471.750 145.728 C 473.813 145.513, 472.125 145.336, 468 145.336 C 463.875 145.336, 462.188 145.513, 464.250 145.728 M 551.784 146.738 C 554.689 146.941, 559.189 146.939, 561.784 146.734 C 564.378 146.528, 562 146.363, 556.500 146.365 C 551 146.368, 548.878 146.536, 551.784 146.738 M 667.506 174.274 C 668.283 176.900, 668.717 179.600, 668.471 180.274 C 668.224 180.948, 667.588 184.635, 667.056 188.467 C 665.833 197.279, 660.646 207.907, 654.520 214.149 C 652.011 216.707, 646.408 220.646, 642.068 222.904 C 634.702 226.736, 633.224 227.113, 619.839 228.573 C 611.139 229.522, 604.574 230.736, 603.146 231.660 C 600.989 233.055, 600.849 233.635, 601.468 238.591 L 602.144 244 599.322 244.006 C 597.770 244.009, 594.750 244.497, 592.611 245.091 C 589.219 246.033, 588.362 245.904, 585.902 244.085 C 582.397 241.494, 579.904 241.447, 576.861 243.914 L 574.500 245.828 574.416 308.664 C 574.335 369.405, 574.263 371.709, 572.261 377.781 C 569.871 385.029, 566.408 389.968, 560.931 393.935 C 558.806 395.475, 557.390 397.091, 557.784 397.527 C 558.178 397.964, 557.954 398.007, 557.287 397.624 C 556.621 397.242, 553.906 398.028, 551.254 399.371 C 536.898 406.646, 515.181 404.791, 502.512 395.207 C 499.768 393.132, 494.914 387.961, 491.725 383.717 C 488.536 379.473, 485.344 376, 484.632 376 C 481.508 376, 480.987 371.532, 480.728 342.500 C 480.477 314.494, 480.460 314.785, 480.242 351 C 480.109 373.032, 480.439 391.181, 481.044 395 C 481.923 400.555, 486.067 411.401, 487.920 413 C 488.239 413.275, 490.015 415.750, 491.866 418.500 C 495.441 423.812, 503.891 431.365, 509.462 434.229 C 514.016 436.570, 526.375 439.868, 532.500 440.376 C 542.542 441.208, 557.910 436.723, 563.500 431.329 C 564.600 430.267, 566.316 429.087, 567.313 428.707 C 568.311 428.326, 568.840 427.550, 568.489 426.982 C 568.138 426.415, 568.274 426.074, 568.790 426.225 C 570.319 426.673, 577.655 417.150, 580.836 410.588 C 587.102 397.661, 587.065 398.194, 586.916 321.470 L 586.781 251.774 588.918 249.637 C 590.934 247.620, 592.329 247.466, 613.777 246.890 C 639.792 246.193, 645.968 244.878, 654.950 238.130 C 673.235 224.391, 679.173 204.040, 671.564 181.192 C 668.488 171.957, 665.122 166.219, 667.506 174.274 M 476.500 224.933 C 474.521 229.264, 471.152 233.975, 466.604 238.770 C 462.811 242.769, 459.972 246.306, 460.296 246.630 C 460.621 246.954, 464.061 247.568, 467.941 247.994 C 471.822 248.420, 476.123 249.506, 477.499 250.407 C 479.732 251.871, 480.013 252.766, 480.118 258.773 C 480.183 262.473, 480.580 266.850, 481 268.500 L 481.763 271.500 481.882 268.355 C 481.947 266.625, 483.290 262.125, 484.867 258.355 C 486.609 254.189, 488.402 247.032, 489.438 240.112 L 491.143 228.723 488.010 225.862 C 486.286 224.288, 484.487 223, 484.011 223 C 483.535 223, 482.325 221.957, 481.322 220.683 L 479.500 218.365 476.500 224.933 M 855.577 227.438 C 852.386 235.794, 840.477 248.731, 831.888 253.172 C 825.489 256.481, 816.012 258.286, 808.153 257.693 C 804.112 257.389, 801.112 257.446, 801.486 257.820 C 801.861 258.194, 802.467 258.538, 802.833 258.584 C 806.433 259.036, 809.794 261.766, 808.750 263.389 C 808.457 263.845, 822.713 273.704, 827.332 276.239 C 829.765 277.575, 831.892 277.849, 836.500 277.421 C 845.717 276.563, 848.554 275.289, 853.497 269.792 L 858.060 264.717 857.959 243.858 C 857.903 232.386, 857.726 223, 857.565 223 C 857.404 223, 856.509 224.997, 855.577 227.438 M 744.560 235.750 C 744.630 237.262, 744.758 239.078, 744.844 239.786 C 745.048 241.465, 751.013 243.969, 767.795 249.417 C 786.818 255.593, 789.012 256.115, 790.906 254.915 C 792.140 254.132, 791.964 254.052, 790.125 254.559 C 788.732 254.943, 787.990 254.825, 788.332 254.272 C 788.652 253.754, 787.246 252.535, 785.207 251.563 C 783.168 250.592, 778.294 247.385, 774.377 244.438 C 765.970 238.113, 758.100 233.748, 756.329 234.427 C 755.633 234.694, 754.798 234.482, 754.473 233.956 C 754.148 233.430, 751.756 233, 749.157 233 C 744.638 233, 744.438 233.120, 744.560 235.750 M 209.810 263.891 C 208.430 267.764, 207.583 270.758, 207.928 270.544 C 208.976 269.897, 224.197 273.051, 226.989 274.494 C 228.425 275.237, 230.252 275.778, 231.050 275.697 C 235.477 275.248, 258.221 281.551, 265.498 285.243 C 271.382 288.228, 274.835 291.407, 281.220 299.719 C 287.108 307.384, 288.430 310.962, 287.841 317.640 L 287.500 321.500 292.095 322.029 C 295.216 322.388, 297.088 322.131, 297.932 321.228 C 298.809 320.289, 299.541 320.204, 300.429 320.941 C 301.119 321.514, 301.900 321.767, 302.164 321.502 C 302.670 320.997, 307.874 334.002, 310.566 342.500 C 312.592 348.895, 314.291 351.209, 316.373 350.410 C 318.669 349.529, 318.439 348.715, 314.718 344.532 C 312.738 342.308, 309.906 336.806, 307.581 330.672 C 305.461 325.077, 302.234 317.125, 300.411 313 C 298.587 308.875, 296.584 302.800, 295.959 299.500 C 293.954 288.908, 286.001 270.157, 281.500 265.411 C 276.737 260.388, 277.917 260.575, 241.500 259.076 C 227.750 258.510, 215.559 257.777, 214.410 257.448 C 212.572 256.922, 212.017 257.699, 209.810 263.891 M 599.788 330.207 L 599.500 400.500 596.568 408.901 C 590.673 425.789, 579.145 439.169, 563.925 446.788 C 551.971 452.772, 544.774 454.359, 532.506 453.716 C 527.003 453.427, 519.800 452.450, 516.500 451.543 C 508.304 449.293, 495.656 441.722, 488.910 435.027 L 483.321 429.481 484.116 432.990 C 485.423 438.759, 489.670 449.763, 492.332 454.276 C 493.702 456.599, 497.043 460.697, 499.758 463.382 C 519.767 483.176, 547.114 487.032, 573.465 473.776 C 583.481 468.737, 587.901 464.949, 595.375 455 C 603.479 444.211, 608.527 434.038, 610.057 425.411 C 611.471 417.439, 612.998 412.833, 614.104 413.201 C 615.317 413.606, 625.396 428.019, 633.195 440.500 C 643.909 457.646, 656.579 468.163, 676.081 476.100 C 680.001 477.695, 684.312 479, 685.663 479 C 687.013 479, 687.909 479.337, 687.654 479.750 C 687.398 480.163, 689.959 480.533, 693.345 480.573 C 700.880 480.663, 704 481.160, 704 482.272 C 704 482.737, 704.387 482.879, 704.861 482.586 C 705.335 482.293, 708.262 482.946, 711.366 484.037 C 716.076 485.693, 720.044 486.061, 735.330 486.261 L 753.650 486.500 758.540 482.507 C 763.307 478.614, 763.605 478.520, 770.465 478.741 C 778.760 479.008, 785.642 477.227, 794.827 472.438 C 798.454 470.547, 802.395 469, 803.585 469 C 807.037 469, 813.460 466.404, 817.818 463.247 C 820.031 461.644, 824.015 459.523, 826.671 458.534 C 833.262 456.080, 840.987 450.148, 845.373 444.173 C 851.244 436.175, 859.757 417.194, 862.976 404.924 L 865.909 393.745 864.332 383.623 C 863.464 378.055, 862.674 372.825, 862.575 372 C 862.476 371.175, 861.921 369.660, 861.342 368.632 C 860.466 367.079, 860.171 367.657, 859.586 372.065 C 858.628 379.282, 850.892 398.487, 845.183 407.817 C 839.619 416.910, 828.078 429.345, 819.597 435.385 C 807.332 444.120, 791.478 450.548, 772.351 454.539 C 765.283 456.014, 759.216 457.390, 758.870 457.596 C 758.523 457.802, 753.289 458.405, 747.239 458.936 C 724.892 460.897, 693.030 456.804, 669.309 448.927 C 656.653 444.724, 642.369 435.123, 630.172 422.622 C 625.042 417.364, 621.138 412.586, 621.496 412.006 C 621.855 411.425, 621.574 411.074, 620.871 411.225 C 620.168 411.376, 619.567 410.825, 619.535 410 C 619.503 409.175, 618.747 407.150, 617.853 405.500 C 614.439 399.192, 612.684 392.130, 612.014 382 L 611.319 371.500 611.144 379.500 C 611.013 385.490, 610.700 387.123, 609.898 386 C 609.042 384.802, 608.929 384.964, 609.335 386.807 C 609.730 388.604, 609.558 388.878, 608.556 388.047 C 607.629 387.277, 606.464 387.397, 604.385 388.478 L 601.500 389.977 601.212 379.238 C 600.898 367.518, 602.690 361.035, 606.250 361.011 C 607.252 361.005, 607.993 360.252, 607.985 359.250 C 607.972 357.754, 607.828 357.718, 607 359 C 606.467 359.825, 606.024 360.013, 606.015 359.417 C 606.007 358.821, 606.322 358.012, 606.715 357.619 C 607.108 357.226, 607.489 355.913, 607.563 354.702 C 607.791 350.957, 609.122 345.979, 611.077 341.559 C 613.040 337.120, 615.416 323.044, 616.487 309.500 C 617.528 296.335, 617.653 296, 621.514 296 C 626.935 296, 629.679 297.573, 637.880 305.386 C 647.912 314.942, 652.113 317.129, 658.893 316.326 C 661.702 315.994, 664 315.371, 664 314.942 C 664 314.514, 662.453 313.207, 660.562 312.039 C 655.486 308.901, 643.706 294.878, 639.696 287.199 C 635.975 280.074, 632 268.326, 632 264.454 C 632 263.169, 631.481 261.797, 630.847 261.406 C 630.213 261.014, 623.030 260.518, 614.886 260.303 L 600.077 259.914 599.788 330.207 M 429.824 264.401 C 423.952 265.006, 418.880 265.771, 418.554 266.103 C 417.746 266.925, 426.022 300.221, 428.719 307 C 429.047 307.825, 429.214 309.108, 429.091 309.850 C 428.967 310.593, 429.299 310.933, 429.828 310.606 C 431.640 309.486, 435.340 322.785, 434.338 326.812 C 433.735 329.232, 433.834 329.363, 435.334 328.128 C 436.827 326.897, 437 327.086, 437 329.943 C 437 331.697, 437.477 334.023, 438.061 335.113 C 438.644 336.203, 439.273 339.293, 439.459 341.979 C 439.645 344.664, 440.094 347.343, 440.457 347.931 C 440.821 348.519, 440.840 349.450, 440.500 350 C 440.160 350.550, 440.328 351, 440.874 351 C 441.420 351, 441.836 352.238, 441.799 353.750 C 441.762 355.262, 442.733 360.049, 443.956 364.387 C 448.544 380.650, 446.473 399.883, 438.291 417 C 431.688 430.814, 416.052 443.707, 400.284 448.340 C 386.108 452.504, 373.550 451.329, 359.500 444.522 C 350.613 440.217, 339.951 431.399, 334.081 423.500 C 332.855 421.850, 332.196 421.175, 332.618 422 C 333.251 423.240, 333.118 423.284, 331.850 422.259 C 329.321 420.212, 329.060 421.863, 331.016 427.547 C 334.105 436.524, 340.972 446.866, 349.675 455.647 C 364.763 470.872, 374.390 475.251, 393 475.352 C 402.164 475.402, 405.939 474.968, 411.584 473.215 C 428.340 468.010, 446.092 450.983, 452.210 434.249 C 453.921 429.569, 454.392 425.525, 454.740 412.500 C 455.186 395.829, 454.454 390.090, 449 367.500 C 447.938 363.100, 446.342 354.100, 445.454 347.500 C 442.565 326.025, 440.658 320.339, 436.760 321.576 C 435.102 322.103, 434.910 321.858, 435.508 319.973 C 436.009 318.397, 435.872 317.961, 435.040 318.475 C 434.338 318.909, 433.968 318.658, 434.119 317.850 C 434.258 317.108, 434.031 314.628, 433.613 312.341 C 432.646 307.035, 434.772 302.528, 438.715 301.528 C 440.247 301.139, 446.885 300.440, 453.467 299.974 C 463.072 299.295, 465.687 298.781, 466.717 297.373 C 467.627 296.128, 468 291.226, 468 280.509 L 468 265.401 459.698 264.200 C 450.186 262.825, 444.787 262.861, 429.824 264.401 M 480.336 289 C 480.336 293.125, 480.513 294.813, 480.728 292.750 C 480.944 290.688, 480.944 287.313, 480.728 285.250 C 480.513 283.188, 480.336 284.875, 480.336 289 M 705 332.925 C 698.065 333.891, 697.280 334.777, 700.620 337.874 C 702.178 339.318, 703.688 340.507, 703.976 340.515 C 705.335 340.555, 706.971 342.238, 706.457 343.069 C 706.141 343.581, 706.407 344, 707.048 344 C 707.689 344, 707.976 344.619, 707.686 345.376 C 707.359 346.227, 707.795 346.703, 708.829 346.626 C 709.748 346.557, 710.393 347.046, 710.262 347.714 C 710.131 348.382, 710.618 348.700, 711.345 348.421 C 712.071 348.142, 714.943 349.059, 717.728 350.457 C 720.512 351.856, 723.250 353, 723.812 353 C 724.374 353, 725.004 353.513, 725.214 354.141 C 725.810 355.929, 736.442 354.227, 739.448 351.862 C 742.784 349.238, 742.920 344.213, 739.736 341.222 C 734.188 336.009, 715.281 331.494, 705 332.925 M 270.647 359.250 C 268.743 363.238, 265.769 369.640, 264.039 373.478 C 260.292 381.785, 254.028 390.201, 249.516 392.990 C 243.944 396.434, 230.539 399.285, 219.500 399.373 C 209.921 399.450, 209.177 399.296, 201.840 395.732 C 190.259 390.107, 184.619 382.798, 178.670 365.711 L 176.306 358.922 174.721 366.711 C 170.877 385.590, 171.712 396.035, 178.076 408.693 C 185.450 423.363, 196.820 432.433, 213.046 436.590 C 223.858 439.360, 237.778 436.932, 246.934 430.679 C 259.270 422.254, 264.599 412.858, 273.974 383 C 277.342 372.275, 280.969 361.587, 282.035 359.250 C 283.545 355.940, 283.672 355, 282.609 355 C 281.859 355, 280.685 354.325, 280 353.500 C 279.315 352.675, 277.710 352, 276.432 352 C 274.534 352, 273.477 353.324, 270.647 359.250 M 292.155 371 C 291.091 374.025, 287.425 385.203, 284.007 395.840 C 278.531 412.880, 277.090 416.230, 271.879 424.019 C 268.627 428.882, 263.949 434.636, 261.483 436.806 C 255.682 441.913, 245.089 447.437, 237.500 449.313 C 228.906 451.438, 212.347 452.204, 210.695 450.552 C 209.987 449.844, 208.303 448.950, 206.953 448.566 C 205.005 448.013, 204.809 448.100, 206 448.988 C 207.258 449.927, 207.178 450.049, 205.500 449.744 C 204.400 449.545, 203.624 448.812, 203.775 448.115 C 203.964 447.246, 203.376 447.063, 201.900 447.532 C 200.564 447.956, 199.984 447.835, 200.369 447.212 C 200.710 446.661, 200.279 445.937, 199.412 445.605 C 197.007 444.682, 196.328 444.910, 198 446.081 C 199.157 446.891, 198.957 446.977, 197.126 446.459 C 195.821 446.089, 194.146 445.698, 193.405 445.589 C 192.664 445.480, 191.745 445.078, 191.362 444.696 C 189.989 443.322, 189 444.043, 189 446.419 C 189 449.934, 192.142 454.964, 194.761 455.639 C 197.286 456.290, 201 460.932, 201 463.436 C 201 464.331, 201.672 465.321, 202.494 465.636 C 203.316 465.952, 203.733 466.624, 203.420 467.130 C 203.107 467.636, 203.222 467.966, 203.676 467.863 C 204.129 467.761, 205.838 468.227, 207.474 468.899 C 209.109 469.571, 212.034 470.007, 213.974 469.869 C 216.018 469.723, 218.605 470.343, 220.127 471.343 C 228.127 476.598, 246.080 476.077, 254.473 470.347 C 255.557 469.606, 257.920 469, 259.723 469 C 261.944 469, 263 468.525, 263 467.526 C 263 466.715, 264.238 465.408, 265.750 464.621 C 269.498 462.671, 272.422 459.273, 274.459 454.500 C 277.359 447.707, 277.553 447.511, 281.701 447.200 C 285.628 446.905, 285.779 446.747, 290.290 438.190 C 292.816 433.400, 298.008 420.260, 301.828 408.991 C 311.262 381.162, 310.403 383, 313.975 383 C 315.639 383, 317 383.525, 317 384.167 C 317 384.808, 317.223 385.110, 317.497 384.837 C 317.770 384.564, 317.288 381.966, 316.426 379.064 C 315.565 376.162, 314.540 371.923, 314.151 369.644 L 313.442 365.500 303.765 365.500 L 294.088 365.500 292.155 371 M 440.846 483.165 C 432.774 487.845, 433.099 497.103, 441.540 502.887 C 445.631 505.690, 449.996 505.092, 452.962 501.322 C 457.374 495.712, 456.468 488.255, 450.794 483.480 C 447.216 480.470, 445.583 480.418, 440.846 483.165 M 348.286 482.619 C 348.626 482.960, 348.251 483.892, 347.452 484.690 C 345.572 486.571, 345.581 490.625, 347.468 491.349 C 349.318 492.059, 349.766 491.313, 350.591 486.155 C 351.163 482.578, 351.006 482, 349.461 482 C 348.474 482, 347.945 482.279, 348.286 482.619 M 337.658 514.675 C 337.296 515.037, 337 516.362, 337 517.620 C 337 518.877, 336.506 520.990, 335.902 522.315 L 334.805 524.724 330.868 522.822 C 328.703 521.776, 327.198 520.488, 327.525 519.960 C 327.851 519.432, 327.641 519, 327.059 519 C 326.477 519, 326 519.413, 326 519.918 C 326 520.423, 325.746 521.497, 325.436 522.305 C 325.022 523.384, 326.458 524.309, 330.854 525.793 L 336.835 527.813 338.039 524.907 C 338.701 523.308, 339.665 522, 340.180 522 C 340.696 522, 340.859 521.581, 340.543 521.069 C 340.226 520.557, 340.425 519.856, 340.984 519.510 C 341.543 519.165, 342 517.934, 342 516.774 C 342 515.615, 341.704 514.963, 341.342 515.325 C 340.980 515.687, 340.151 515.540, 339.500 515 C 338.849 514.460, 338.020 514.313, 337.658 514.675" stroke="none" fill="#f9a700" fill-rule="evenodd"/><path d="M 734.952 21.089 C 733.995 22.879, 734.096 23.128, 735.656 22.828 C 736.657 22.635, 737.628 21.695, 737.812 20.739 C 738.278 18.318, 736.306 18.560, 734.952 21.089 M 698.033 34.936 C 695.672 39.564, 696.174 45.337, 698.884 44.738 C 699.773 44.542, 700.304 43.733, 700.064 42.941 C 699.469 40.971, 699.607 37.056, 700.389 33.750 C 701.307 29.869, 700.379 30.336, 698.033 34.936 M 383.983 34.500 C 384.765 35.600, 386.241 37.458, 387.262 38.628 C 389.074 40.704, 389.070 40.836, 387.111 44.057 C 386.007 45.873, 385.283 47.648, 385.501 48.002 C 386.361 49.394, 383.889 62.298, 382.085 65.834 C 379.497 70.906, 373.476 76.941, 367.466 80.486 C 363.238 82.981, 361.460 83.413, 355.500 83.400 C 346.229 83.378, 338.189 81.360, 334.500 78.128 L 331.500 75.500 334.500 78.843 C 338.164 82.925, 345.755 89.078, 344.565 87 C 344.093 86.175, 344.650 86.470, 345.805 87.657 C 348.177 90.094, 354.437 92.466, 355.980 91.512 C 356.541 91.166, 357 91.359, 357 91.941 C 357 94.693, 372.132 91.936, 378.446 88.034 C 387.978 82.142, 394.028 70.220, 394.010 57.365 C 394.004 53.332, 393.365 48.767, 392.539 46.865 C 391.736 45.014, 391.054 44.175, 391.024 45 C 390.975 46.333, 390.862 46.333, 390 45 C 388.680 42.957, 388.753 41.729, 390.144 42.589 C 392.034 43.757, 387.692 37.051, 385.030 34.690 C 382.854 32.761, 382.730 32.738, 383.983 34.500 M 694.657 55.655 C 694.308 57.770, 694.062 60.400, 694.111 61.500 C 694.184 63.151, 694.339 63.064, 695.001 61 C 695.661 58.945, 695.791 59.256, 695.738 62.753 C 695.685 66.126, 696.482 68.183, 699.586 72.696 C 701.739 75.826, 705.346 79.690, 707.603 81.282 C 713.252 85.269, 722.918 89.526, 723.789 88.411 C 724.180 87.910, 724.252 80.525, 723.949 72 C 723.646 63.475, 723.308 58.125, 723.199 60.110 C 723.089 62.096, 722.718 65.778, 722.373 68.292 L 721.747 72.863 716.783 72.446 C 706.851 71.611, 700 68.712, 700 65.345 C 700 64.605, 699.550 64, 699 64 C 698.450 64, 697.993 62.987, 697.985 61.750 C 697.977 60.513, 697.367 57.770, 696.631 55.655 L 695.293 51.810 694.657 55.655 M 815.160 172.921 C 815.072 174.803, 814.255 177.165, 813.345 178.171 C 812.412 179.202, 812.179 180, 812.810 180 C 814.620 180, 816.151 176.161, 815.720 172.704 L 815.320 169.500 815.160 172.921 M 846.187 194.500 C 846.181 196.150, 846.526 199.750, 846.954 202.500 L 847.733 207.500 847.767 202 C 847.785 198.975, 847.440 195.375, 847 194 C 846.221 191.566, 846.199 191.579, 846.187 194.500 M 841.398 201.818 C 839.804 203.368, 835.857 207.654, 832.626 211.343 C 825.134 219.897, 815.952 225.345, 805.500 227.436 C 802.273 228.082, 773.592 225.484, 771.813 224.385 C 771.223 224.020, 770.911 224.200, 771.120 224.786 C 771.681 226.358, 790.555 239.859, 796.050 242.619 C 802.868 246.043, 816.250 246.028, 823.640 242.587 C 832.029 238.681, 838.169 232.190, 844.776 220.246 C 845.512 218.914, 845.806 216.255, 845.495 213.746 C 845.096 210.541, 845.208 209.991, 845.948 211.500 C 846.651 212.934, 846.760 211.943, 846.331 208 C 846.003 204.975, 845.348 202.009, 844.876 201.408 C 844.404 200.807, 844.313 200.020, 844.675 199.658 C 845.037 199.296, 845.100 199, 844.815 199 C 844.530 199, 842.992 200.268, 841.398 201.818 M 689.250 204.984 C 687.016 206.807, 686.084 208.684, 688 207.500 C 689.128 206.803, 689.325 208.989, 688.361 211.502 C 687.845 212.846, 687.539 212.910, 686.777 211.834 C 686.140 210.935, 686.013 211.557, 686.389 213.739 C 686.979 217.173, 686.272 220.286, 685.071 219.544 C 684.676 219.299, 684.385 220.090, 684.426 221.300 C 684.470 222.624, 683.972 223.391, 683.176 223.225 C 682.447 223.074, 682.111 223.371, 682.429 223.885 C 683.239 225.196, 681.981 228.106, 680.895 227.435 C 679.977 226.868, 679.598 228.340, 679.977 231 C 680.094 231.825, 679.878 232.193, 679.496 231.817 C 679.114 231.442, 676.602 233.777, 673.914 237.007 C 667.027 245.284, 653.871 254.390, 646.500 255.983 C 643.729 256.582, 643.519 256.930, 643.747 260.549 C 644.234 268.269, 649.881 281.928, 655.096 288 C 656.750 289.925, 657.846 290.815, 657.532 289.979 C 657.135 288.919, 659.226 286.838, 664.427 283.118 C 672.434 277.392, 679.076 270.297, 685.911 260.170 C 691.785 251.467, 693.651 246.823, 695.024 237.500 C 697.774 218.827, 697.402 207.580, 693.998 206.499 C 692.970 206.173, 691.987 205.285, 691.814 204.526 C 691.567 203.442, 691.019 203.540, 689.250 204.984 M 728.654 243 C 730.220 249.180, 738.700 256.400, 745.625 257.450 C 749.388 258.020, 749.361 257.989, 744.711 256.361 C 739.092 254.393, 731.507 248.057, 729.461 243.621 C 728.385 241.291, 728.181 241.133, 728.654 243 M 660.500 294.866 C 662.150 296.692, 665.300 299.571, 667.500 301.264 C 672.185 304.870, 670.677 303.251, 663 296.432 C 659.807 293.596, 658.758 292.939, 660.500 294.866 M 843.803 329.111 C 844.102 331.147, 843.897 332.055, 843.232 331.643 C 841.727 330.714, 840 336.477, 840 342.427 C 840 345.672, 839.364 348.463, 838.268 350.027 C 837.316 351.387, 836.583 352.725, 836.641 353 C 836.942 354.439, 832.745 364.121, 828.033 372.862 C 820.591 386.664, 798.111 406.560, 780.500 414.932 C 776.650 416.762, 770.350 419.066, 766.500 420.051 C 762.650 421.036, 756.800 422.653, 753.500 423.645 C 745.564 426.030, 717.866 426.020, 704.250 423.626 C 699.162 422.732, 693.699 422, 692.109 422 C 686.986 422, 670.358 417.148, 661.578 413.092 C 653.304 409.270, 643.731 402.702, 639.376 397.861 C 638.208 396.563, 636.138 393.475, 634.776 391 C 630.661 383.522, 627.496 379.335, 626.267 379.744 C 625.497 380.001, 624.981 378.168, 624.741 374.316 C 624.401 368.869, 624.367 368.975, 624.204 376 C 624.109 380.125, 624.361 382.982, 624.765 382.348 C 625.169 381.714, 625.531 383.313, 625.569 385.901 C 625.734 397.166, 639.317 416.703, 654.534 427.561 C 661.639 432.632, 671.639 437.352, 673.645 436.583 C 674.390 436.297, 675 436.525, 675 437.090 C 675 437.656, 675.412 437.864, 675.915 437.553 C 676.418 437.242, 676.994 437.482, 677.196 438.087 C 677.397 438.691, 679.207 439.232, 681.219 439.289 C 683.230 439.346, 684.652 439.754, 684.379 440.196 C 683.936 440.913, 688.061 441.508, 690.408 441.066 C 690.908 440.971, 691.625 441.393, 692.002 442.003 C 692.379 442.613, 695.008 443.130, 697.843 443.152 C 700.982 443.176, 702.760 443.579, 702.388 444.182 C 701.992 444.822, 703.808 444.918, 707.529 444.453 C 711.420 443.967, 713.075 444.070, 712.641 444.772 C 712.214 445.463, 714.088 445.670, 718.250 445.391 C 722.653 445.095, 723.909 445.250, 722.500 445.915 C 721.125 446.564, 724.565 446.876, 733.500 446.912 C 745.522 446.960, 757.104 445.719, 769.500 443.053 C 772.250 442.462, 775.954 441.701, 777.730 441.361 C 779.507 441.022, 780.721 440.357, 780.428 439.884 C 780.136 439.410, 780.517 439.261, 781.275 439.552 C 783.548 440.424, 796.736 435.139, 805.910 429.679 C 817.695 422.665, 834.452 405.158, 832.462 401.938 C 832.126 401.395, 832.392 401.074, 833.053 401.225 C 834.497 401.556, 841.064 389.874, 843.488 382.663 C 848.278 368.413, 849.375 350.619, 846.390 335.600 C 844.816 327.679, 842.880 322.825, 843.803 329.111 M 654 337.996 C 652.186 338.575, 653.145 338.780, 657.500 338.745 C 665.572 338.681, 671.454 339.792, 677.750 342.572 C 680.638 343.847, 683 344.664, 683 344.389 C 683 343.479, 673.685 339.747, 668.043 338.397 C 661.876 336.922, 657.741 336.804, 654 337.996 M 703.153 501.500 C 703.026 503.576, 702.707 504.087, 702.119 503.158 C 701.407 502.035, 700.879 502.035, 698.884 503.158 C 695.434 505.100, 688.231 511.509, 690.459 510.654 C 691.548 510.236, 692.637 510.413, 693.045 511.073 C 694.097 512.775, 699.386 511.283, 701.942 508.562 C 703.623 506.772, 704.041 505.327, 703.735 502.364 C 703.405 499.167, 703.305 499.018, 703.153 501.500" stroke="none" fill="#ff1016" fill-rule="evenodd"/><path d="M 719.605 18.717 C 718.563 18.984, 718.113 19.494, 718.605 19.851 C 719.097 20.208, 721.188 22.414, 723.250 24.753 C 726.079 27.961, 727 29.877, 727 32.553 C 727 37.806, 724.610 41.526, 719.712 43.898 C 713.804 46.757, 708.898 46.627, 705.195 43.511 C 701.583 40.472, 700.750 36.754, 702.525 31.602 C 703.667 28.288, 703.662 27.913, 702.489 29.102 C 700.335 31.285, 698.943 39.232, 700.064 42.941 C 700.306 43.740, 699.721 44.551, 698.750 44.764 C 697.523 45.032, 697 44.527, 697 43.073 C 697 41.933, 696.609 41, 696.131 41 C 695.009 41, 693.983 47.247, 694.161 53 C 694.266 56.404, 694.407 56.770, 694.742 54.500 L 695.183 51.500 696.577 55.500 C 697.343 57.700, 697.977 60.513, 697.985 61.750 C 697.993 62.987, 698.450 64, 699 64 C 699.550 64, 700 64.605, 700 65.345 C 700 68.719, 706.852 71.611, 716.837 72.450 L 721.855 72.872 722.491 66.186 C 723.001 60.828, 726.822 39.794, 728.284 34.298 C 728.459 33.637, 729.367 32.251, 730.302 31.219 C 731.236 30.187, 732 28.957, 732 28.486 C 732 28.014, 732.978 26.587, 734.174 25.314 C 735.375 24.036, 735.807 23, 735.139 23 C 734.261 23, 734.208 22.480, 734.947 21.100 C 735.726 19.644, 735.598 19.060, 734.400 18.600 C 732.608 17.912, 722.434 17.993, 719.605 18.717 M 350.872 23.967 C 349.427 24.404, 346.578 25.894, 344.540 27.279 L 340.835 29.796 344.944 30.491 C 347.559 30.932, 350.317 32.376, 352.527 34.461 C 355.657 37.412, 356 38.268, 355.996 43.118 C 355.990 52.684, 349.524 58.966, 341.048 57.642 C 337.128 57.030, 331.338 51.380, 330.806 47.648 C 330.551 45.860, 330.189 46.149, 328.644 49.374 C 324.878 57.236, 327.708 70.763, 334.660 78.128 C 337.648 81.294, 346.465 83.483, 356 83.426 C 361.335 83.394, 363.390 82.864, 367.466 80.471 C 373.466 76.950, 379.492 70.916, 382.085 65.834 C 383.864 62.346, 386.422 49.089, 385.494 48.161 C 385.266 47.933, 385.790 46.373, 386.659 44.693 L 388.237 41.641 389.583 44.070 C 390.323 45.407, 390.945 45.896, 390.965 45.159 C 391.023 42.962, 381.300 30.672, 377.650 28.328 C 370.637 23.826, 358.092 21.783, 350.872 23.967 M 726 143.425 C 707.048 147.468, 679 160.177, 679 164.721 C 679 165.461, 680.167 168.369, 681.593 171.184 C 685.703 179.295, 687.062 184.767, 687.697 195.774 C 688.270 205.701, 688.352 205.991, 690.145 204.369 C 691.801 202.870, 692 202.860, 692 204.278 C 692 205.151, 692.870 206.141, 693.934 206.479 C 697.407 207.581, 697.797 218.672, 695.024 237.500 C 693.651 246.823, 691.785 251.467, 685.911 260.170 C 679.080 270.291, 672.436 277.391, 664.446 283.105 C 660.351 286.033, 657 288.782, 657 289.212 C 657 290.724, 664.312 298.065, 670.374 302.640 C 681.140 310.765, 690.835 314.581, 714.801 320.128 C 726.736 322.891, 738.323 325.952, 740.551 326.931 C 745.525 329.117, 751.609 334.344, 753.551 338.099 C 755.269 341.420, 755.475 352.206, 753.880 355.316 C 748.275 366.246, 733.009 370.721, 716.971 366.135 C 707.819 363.517, 703.791 361.252, 693.500 352.936 C 680.126 342.128, 670.938 338.518, 657.620 338.839 C 650.063 339.020, 642.660 342.568, 634.956 349.701 C 627.963 356.175, 625.956 360.759, 625.240 371.883 C 624.803 378.691, 624.958 380.181, 626.066 379.811 C 627.484 379.339, 630.471 383.176, 634.776 391 C 636.138 393.475, 638.208 396.563, 639.376 397.861 C 643.731 402.702, 653.304 409.270, 661.578 413.092 C 670.358 417.148, 686.986 422, 692.109 422 C 693.699 422, 699.162 422.732, 704.250 423.626 C 717.866 426.020, 745.564 426.030, 753.500 423.645 C 756.800 422.653, 762.650 421.036, 766.500 420.051 C 782.980 415.834, 801.982 403.445, 817.570 386.754 C 825.943 377.787, 834.475 362.740, 836.991 352.500 C 837.126 351.950, 837.859 350.612, 838.618 349.527 C 839.378 348.443, 840 345.247, 840 342.427 C 840 336.503, 841.727 330.713, 843.218 331.635 C 844.603 332.491, 843.583 324.483, 841.541 318.470 C 835.442 300.506, 820.621 284.333, 801.500 274.778 C 794.326 271.193, 767.546 262.608, 753.500 259.391 C 746.319 257.746, 740.008 255.666, 737.785 254.211 C 730.369 249.359, 726.293 241.200, 727.446 233.513 C 728.207 228.435, 731.190 225.055, 737.683 221.911 C 741.590 220.020, 743.325 219.802, 750.841 220.258 C 755.604 220.547, 761.692 221.544, 764.371 222.473 C 770.939 224.750, 771.408 224.831, 788 226.541 C 795.975 227.364, 803.850 227.766, 805.500 227.436 C 815.723 225.390, 825.119 219.898, 832.293 211.775 C 841.895 200.902, 845.377 197.534, 844.898 199.581 C 844.779 200.086, 844.960 201.175, 845.298 202 C 845.637 202.825, 846.126 204.850, 846.386 206.500 C 846.645 208.150, 846.639 205.543, 846.373 200.706 C 845.394 182.939, 839.016 170.405, 825.775 160.227 C 809.527 147.738, 791.371 143.184, 755 142.476 C 738.195 142.149, 730.855 142.389, 726 143.425 M 722.500 155.610 C 705.784 160.185, 701.157 163.683, 702.477 170.746 C 703.840 178.036, 707.152 179.597, 716.766 177.479 C 720.470 176.663, 727.680 175.103, 732.788 174.013 C 743.830 171.655, 745.505 170.859, 747.490 167.020 C 749.706 162.735, 749.363 160.484, 745.896 156.535 C 743.010 153.247, 742.398 153.005, 737.146 153.073 C 734.041 153.114, 727.450 154.255, 722.500 155.610 M 765.623 156.159 C 762.181 158.997, 761.848 159.675, 762.357 162.815 C 763.146 167.676, 767.503 172, 771.610 172 C 775.105 172, 781 167.863, 781 165.411 C 781 164.635, 781.411 164, 781.913 164 C 783.588 164, 780.539 157.804, 777.673 155.386 C 773.821 152.135, 770.225 152.366, 765.623 156.159 M 796.898 162.282 C 794.318 164.015, 793.419 165.399, 793.163 168.032 C 792.767 172.112, 795.259 177.284, 798.709 179.545 C 801.461 181.348, 808.645 181.755, 810.203 180.197 C 810.775 179.625, 811.829 179.381, 812.545 179.656 C 814.406 180.370, 816.189 176.465, 815.720 172.704 C 815.320 169.502, 815.320 169.502, 815.160 173.128 C 815.072 175.123, 814.325 177.315, 813.500 178 C 812.554 178.785, 812 178.852, 812 178.181 C 812 177.597, 812.450 176.840, 813 176.500 C 814.809 175.382, 814.113 168.413, 811.912 165.615 C 809.549 162.612, 805.031 160, 802.198 160 C 801.152 160, 798.767 161.027, 796.898 162.282 M 683.751 221.156 C 682.246 224.562, 681.163 227.496, 681.344 227.677 C 681.898 228.232, 687.145 216.936, 686.806 215.918 C 686.631 215.394, 685.257 217.751, 683.751 221.156 M 278.191 262.047 C 279.121 262.589, 281.258 264.703, 282.941 266.744 C 284.623 268.786, 286 269.858, 286 269.128 C 286 267.374, 279.576 260.992, 277.850 261.030 C 276.934 261.051, 277.043 261.378, 278.191 262.047 M 451.500 261.978 C 447.650 262.346, 446.052 262.726, 447.948 262.823 C 457.306 263.303, 467.946 265.448, 468.390 266.945 C 468.643 267.800, 468.772 266.925, 468.675 265 C 468.500 261.504, 468.495 261.500, 463.500 261.405 C 460.750 261.353, 455.350 261.611, 451.500 261.978 M 417 264.848 C 417 266.682, 417.300 266.996, 418.280 266.182 C 418.984 265.598, 422.022 264.980, 425.030 264.810 L 430.500 264.500 423.750 263.476 C 417.009 262.453, 417 262.455, 417 264.848 M 586.310 283.500 C 586.315 286.800, 586.502 288.029, 586.725 286.232 C 586.947 284.435, 586.943 281.735, 586.715 280.232 C 586.486 278.729, 586.304 280.200, 586.310 283.500 M 296.586 302.750 C 296.959 304.813, 297.908 307.625, 298.695 309 C 299.570 310.527, 299.860 310.721, 299.442 309.500 C 299.064 308.400, 298.324 305.587, 297.797 303.250 C 296.613 298.002, 295.658 297.608, 296.586 302.750 M 657.015 344.857 C 657.006 345.670, 656.378 345.975, 655.448 345.618 C 654.442 345.232, 654.145 345.426, 654.604 346.169 C 655.086 346.949, 654.623 347.135, 653.155 346.751 C 651.968 346.440, 651.211 346.532, 651.471 346.954 C 651.732 347.376, 650.136 348.537, 647.923 349.535 C 641.829 352.283, 638 357.177, 638 362.219 C 638 371.787, 644.739 379.022, 652.326 377.599 C 657.185 376.687, 664.964 371.200, 667.066 367.201 C 668.121 365.196, 668.995 364.412, 669.297 365.201 C 669.569 365.916, 669.571 363.800, 669.299 360.500 C 668.734 353.632, 666.782 350.226, 662.017 347.797 C 660.179 346.860, 658.306 345.510, 657.853 344.797 C 657.190 343.751, 657.028 343.763, 657.015 344.857 M 258.013 420.482 C 256.166 422.947, 252.033 426.874, 248.828 429.208 C 242.343 433.930, 241.394 435.032, 246.158 432.307 C 250.048 430.081, 259.234 421.303, 260.867 418.250 C 262.735 414.758, 261.690 415.575, 258.013 420.482 M 572.428 423.250 C 570.915 425.038, 569.267 426.376, 568.765 426.225 C 568.262 426.074, 568.138 426.415, 568.489 426.982 C 568.840 427.550, 568.311 428.316, 567.313 428.684 C 566.316 429.053, 565.275 429.627, 565 429.962 C 564.725 430.296, 563.202 431.566, 561.615 432.784 C 557.909 435.630, 559.211 435.671, 563.346 432.839 C 567.690 429.863, 571.809 426.020, 574.159 422.750 C 576.875 418.972, 575.780 419.288, 572.428 423.250 M 380.768 450.725 C 382.565 450.947, 385.265 450.943, 386.768 450.715 C 388.271 450.486, 386.800 450.304, 383.500 450.310 C 380.200 450.315, 378.971 450.502, 380.768 450.725 M 335.200 485.715 C 333.501 491.097, 330.920 500, 329.463 505.500 C 328.007 511, 326.182 517.017, 325.408 518.872 C 323.540 523.347, 323.632 525.003, 325.750 524.985 C 326.954 524.974, 327.122 524.729, 326.288 524.199 C 324.938 523.341, 325.680 519, 327.176 519 C 327.694 519, 327.851 519.432, 327.525 519.960 C 327.198 520.488, 328.703 521.776, 330.868 522.822 L 334.805 524.724 335.902 522.315 C 336.506 520.990, 337 518.829, 337 517.512 C 337 514.877, 338.496 513.375, 339.500 515 C 339.851 515.568, 340.557 515.774, 341.069 515.457 C 341.581 515.141, 342 515.782, 342 516.882 C 342 517.982, 341.543 519.165, 340.984 519.510 C 340.425 519.856, 340.226 520.557, 340.543 521.069 C 340.859 521.581, 340.696 522, 340.180 522 C 339.665 522, 338.696 523.320, 338.028 524.933 C 337.185 526.967, 336.305 527.704, 335.157 527.338 C 333.733 526.885, 333.711 526.963, 335 527.890 C 338.765 530.599, 339.646 529.276, 343.591 515 C 345.757 507.160, 346.837 500.265, 345 506 L 344.199 508.500 344.115 506 C 344.020 503.183, 345.905 499.281, 346.048 502 C 346.091 502.825, 346.573 502.381, 347.118 501.014 C 347.664 499.647, 347.902 497.734, 347.648 496.763 C 347.394 495.792, 347.552 495.223, 347.999 495.499 C 348.972 496.101, 352 487.623, 352 484.297 C 352 482.784, 351.201 481.646, 349.750 481.094 C 347.571 480.265, 340.123 476.953, 338.895 476.268 C 338.562 476.082, 336.900 480.333, 335.200 485.715 M 603.299 480.960 C 597.097 484.741, 594.917 493.754, 599.250 497.701 C 604.923 502.868, 610.728 502.925, 616.142 497.868 C 618.916 495.276, 619.182 494.540, 618.618 491.015 C 617.691 485.213, 615.958 482.030, 612.855 480.425 C 609.168 478.518, 607.114 478.633, 603.299 480.960 M 348.286 482.619 C 348.626 482.960, 348.251 483.892, 347.452 484.690 C 345.572 486.571, 345.581 490.625, 347.468 491.349 C 349.318 492.059, 349.766 491.313, 350.591 486.155 C 351.163 482.578, 351.006 482, 349.461 482 C 348.474 482, 347.945 482.279, 348.286 482.619 M 195.378 491.542 C 197.295 496.538, 197.168 498.091, 194.566 501.502 C 193.105 503.418, 190.802 505.263, 189.448 505.602 C 186.267 506.401, 182.039 503.678, 181.879 500.727 C 181.813 499.502, 181.336 501.130, 180.819 504.345 C 179.981 509.557, 180.130 510.688, 182.190 514.777 C 185.328 521.006, 189.607 523.246, 197.399 522.736 C 202.498 522.403, 203.675 521.928, 206.087 519.229 C 211.647 513.006, 211.781 503.334, 206.404 496.285 C 203.694 492.732, 202.008 491.638, 197.624 490.588 C 195.218 490.011, 194.850 490.167, 195.378 491.542 M 434.137 493 C 434.082 495.074, 434.841 497.519, 436 499 C 437.076 500.375, 437.966 501.027, 437.978 500.450 C 437.990 499.873, 437.483 498.883, 436.851 498.251 C 436.219 497.619, 435.371 495.391, 434.966 493.301 L 434.230 489.500 434.137 493 M 689.388 491.942 C 684.188 494.137, 681.501 501.330, 684.080 506.150 C 685.189 508.222, 691.773 511.560, 692.775 510.559 C 693.082 510.251, 692.730 510, 691.992 510 C 690.096 510, 694.682 505.305, 698.381 503.460 C 700.753 502.277, 701.529 502.231, 702.167 503.236 C 702.666 504.023, 702.975 503.279, 702.985 501.266 C 703.014 494.978, 695.083 489.539, 689.388 491.942" stroke="none" fill="#ff3925" fill-rule="evenodd"/><path d="M 582.615 1.440 C 578.537 2.928, 572.415 8.310, 568.797 13.591 L 566.656 16.717 555.014 16.608 C 543.653 16.503, 543.281 16.569, 539.580 19.382 C 532.115 25.055, 531.506 32.043, 537.596 42.151 C 539.468 45.259, 541 48.422, 541 49.181 C 541 49.940, 539.425 54.295, 537.500 58.860 C 533.245 68.949, 532.889 75.056, 536.266 80.067 C 539.834 85.361, 544.502 86.651, 554.379 85.070 C 558.846 84.355, 563.850 83.569, 565.500 83.323 C 568.232 82.916, 568.981 83.511, 573.886 89.987 C 581.883 100.545, 588.711 103.257, 596.790 99.083 C 602.090 96.345, 603.092 94.020, 604.109 82.099 C 604.607 76.270, 605.191 71.016, 605.408 70.425 C 605.625 69.834, 608.846 68.526, 612.566 67.519 C 617.986 66.052, 620.290 64.763, 624.165 61.028 C 628.992 56.375, 629.662 54.604, 629.097 48 C 628.979 46.625, 627.754 43.776, 626.373 41.668 C 624.002 38.048, 619.139 35.193, 606.856 30.212 C 604.512 29.261, 604.136 28.424, 603.540 22.820 C 602.404 12.154, 600.353 6.370, 596.733 3.622 C 592.533 0.434, 587.503 -0.343, 582.615 1.440 M 716 7.892 C 706.856 10.386, 701.809 13.231, 695.753 19.310 C 681.429 33.685, 677.960 55.557, 686.998 74.496 C 692.776 86.603, 707.771 97.769, 721.322 100.054 C 740.205 103.239, 756.545 97.111, 768.600 82.322 C 775.563 73.781, 777.353 67.734, 777.432 52.486 C 777.498 39.779, 777.424 39.319, 774.283 32.986 C 770.041 24.433, 759.745 13.688, 752.700 10.463 C 742.313 5.708, 727.754 4.688, 716 7.892 M 352.552 11.126 C 345.213 12.846, 334.549 18.736, 329.334 23.952 C 322.662 30.624, 317.211 41.423, 315.749 50.864 C 313.589 64.820, 318.118 78.650, 328.326 89.275 C 335.688 96.936, 341.894 100.617, 350.782 102.595 C 375.612 108.119, 395.755 96.388, 404.172 71.500 C 405.806 66.669, 406.128 63.628, 405.821 55.888 C 405.476 47.180, 405.085 45.556, 401.663 38.634 C 394.304 23.743, 382.991 14.708, 367.792 11.584 C 359.242 9.827, 358.227 9.796, 352.552 11.126 M 582.432 14.777 C 580.745 16.275, 577.701 19.609, 575.667 22.188 C 573.632 24.766, 571.027 27.174, 569.877 27.539 C 568.726 27.904, 564.187 27.619, 559.789 26.905 C 552.958 25.795, 551.421 25.817, 549.245 27.053 C 544.303 29.860, 544.279 31.186, 549.022 39.036 C 551.746 43.545, 553.400 47.479, 553.400 49.450 C 553.400 51.192, 551.473 56.508, 549.118 61.262 C 542.618 74.382, 544.471 76.298, 559.500 72 C 570.744 68.785, 571.635 69.141, 578.817 79.726 C 584.132 87.558, 587.220 89.408, 591 87.023 C 592.121 86.316, 592.632 83.379, 593.022 75.411 C 593.535 64.905, 593.591 64.705, 596.719 62.122 C 598.465 60.680, 602.629 58.656, 605.972 57.624 C 620.961 52.998, 620.497 46.639, 604.825 41.878 C 601.054 40.733, 597.034 39.038, 595.890 38.112 C 593.481 36.161, 592.106 30.159, 592.044 21.321 C 591.977 11.938, 588.386 9.492, 582.432 14.777 M 719.798 18.931 C 702.216 24.552, 694 35.593, 694 53.599 C 694 63.960, 696.644 70.466, 703.830 77.790 C 708.278 82.324, 721.008 89.497, 723.269 88.744 C 723.905 88.532, 724.204 82.419, 724.078 72.243 C 723.914 59, 724.266 54.220, 726.028 45.789 C 728.184 35.481, 731.861 27.246, 735.968 23.529 C 738.945 20.835, 738.475 19.459, 734.134 18.158 C 729.016 16.625, 726.603 16.755, 719.798 18.931 M 346.500 26.031 C 337.505 31.720, 330 40.506, 330 45.346 C 330 46.130, 329.328 48.060, 328.506 49.636 C 325.935 54.566, 326.547 64.540, 329.851 71.522 C 333.202 78.606, 341.001 86.153, 348.581 89.649 C 365.882 97.627, 385.359 89.159, 391.784 70.866 C 396.898 56.307, 393.556 42.279, 382.586 32.253 C 374.749 25.090, 371.117 23.602, 360.500 23.205 C 351.849 22.882, 351.306 22.991, 346.500 26.031 M 746.298 26.811 C 742.693 31.687, 738.295 41.293, 737.056 47 C 735.433 54.473, 734.618 74.130, 735.857 75.931 C 736.660 77.098, 738.102 76.415, 743.671 72.232 C 755.403 63.420, 755.859 63.008, 756.183 60.940 C 756.564 58.510, 758.378 58.009, 758.803 60.216 C 759.133 61.928, 753.406 67.642, 745.500 73.488 C 736.770 79.944, 734.722 83.865, 738.460 86.967 C 741.227 89.264, 754.410 79.861, 759.474 71.979 C 767.023 60.228, 764.389 37.619, 754.203 26.750 C 750.933 23.260, 748.912 23.276, 746.298 26.811 M 228.459 32.341 C 226.621 34.179, 224.830 36.991, 224.478 38.591 C 223.396 43.505, 221.813 46.996, 220.629 47.077 C 219.021 47.185, 217.076 47.612, 212.435 48.873 C 206.067 50.603, 202 55.986, 202 62.684 C 202 66.113, 202.716 67.178, 209.069 73.200 L 216.139 79.901 216.336 88.364 C 216.557 97.805, 217.753 100.103, 223.422 101.974 C 227.479 103.313, 234.307 101.393, 239.458 97.465 L 243.119 94.672 249.309 96.846 C 258.397 100.038, 263.482 99.766, 267.099 95.894 C 270.543 92.207, 270.854 88.043, 268.357 79.060 L 266.714 73.149 269.871 69.163 C 275.860 61.601, 276.994 55.129, 273.119 50.612 C 270.922 48.050, 265.800 46, 261.597 46 C 255.591 46, 253.386 44.524, 250.731 38.723 C 247.487 31.639, 243.760 29, 236.996 29 C 232.438 29, 231.390 29.410, 228.459 32.341 M 236.770 39.742 C 235.715 39.984, 234.618 41.771, 233.960 44.320 C 232.014 51.859, 231.779 52.482, 230.223 54.254 C 229.376 55.219, 226.841 56.478, 224.591 57.051 C 214.043 59.739, 212.503 62.087, 218.172 66.840 C 226.232 73.598, 227 74.931, 227 82.164 C 227 85.859, 227.479 89.178, 228.064 89.540 C 228.650 89.902, 231.462 88.660, 234.314 86.781 C 241.499 82.047, 241.970 81.954, 248.081 84.064 C 255.686 86.689, 258 86.586, 258 83.622 C 258 82.314, 257.325 79.629, 256.500 77.654 C 254.329 72.459, 254.563 71.430, 259 66.616 C 263.034 62.239, 264.051 58.798, 261.750 57.309 C 261.063 56.864, 257.575 56.275, 254 56 L 247.500 55.500 244 48.272 C 240.072 40.160, 239.238 39.176, 236.770 39.742 M 467.420 58.886 C 460.071 63.367, 459.062 73.919, 465.424 79.749 C 470.967 84.830, 477.629 83.795, 483.381 76.959 C 491.754 67.009, 478.574 52.084, 467.420 58.886 M 728 130.986 C 718.392 132.237, 712.805 133.670, 702.113 137.629 C 691.993 141.376, 679.770 147.546, 674.163 151.740 L 670.825 154.235 667.163 150.774 C 662.286 146.167, 658.771 143.833, 650.301 139.583 C 636.876 132.845, 639.928 133.032, 543 133.005 C 455.640 132.980, 455.490 132.983, 449.296 135.159 L 443.092 137.337 433.296 135.180 C 423.675 133.061, 421.816 133.020, 329 132.871 C 241.948 132.731, 233.915 132.857, 227.077 134.479 C 212.865 137.849, 199.759 145.234, 190.435 155.126 C 184.273 161.664, 180.845 167.374, 177.239 177.106 C 174.734 183.869, 174.501 185.695, 174.508 198.500 C 174.516 211.364, 174.730 213.010, 177.153 218.779 C 182.511 231.533, 189.697 241.247, 198.799 248.039 L 202.097 250.500 199.091 258 C 179.136 307.793, 164.680 350.053, 160.443 370.980 C 158.302 381.555, 158.946 395.933, 161.962 404.886 C 166.537 418.468, 179.459 434.570, 191.485 441.676 C 219.816 458.416, 251.752 451.825, 270.654 425.336 C 276.255 417.488, 279.605 409.648, 285.570 390.436 C 288.101 382.286, 291.065 373.229, 292.157 370.309 L 294.144 365 303.936 365 L 313.728 365 314.323 369.250 C 315.318 376.361, 325.104 407.151, 328.572 414.084 C 334.394 425.721, 346.042 436.970, 359.250 443.711 C 369.814 449.102, 376.028 450.398, 388 449.705 C 400.243 448.997, 408.035 446.284, 419.098 438.879 C 435.249 428.068, 446.340 405.209, 446.210 383 C 446.146 371.922, 443.133 358.984, 429.329 310.500 C 419.918 277.444, 416.033 262.300, 416.776 261.558 C 417.044 261.290, 418.214 261.580, 419.377 262.202 C 422.140 263.680, 435.814 263.613, 449 262.055 C 454.775 261.373, 461.437 260.969, 463.804 261.157 L 468.108 261.500 468.304 330 C 468.499 397.990, 468.517 398.548, 470.730 405 C 474.594 416.265, 481.698 427.522, 489.571 434.856 C 508.804 452.775, 531.837 458.104, 555.404 450.089 C 577.063 442.722, 592.121 425.933, 598.006 402.590 C 599.900 395.077, 600 391.303, 600 327.315 L 600 259.949 615.750 260.225 L 631.500 260.500 632.819 266.500 C 636.522 283.339, 643.040 295.055, 655.123 306.585 C 661.854 313.008, 665.296 315.402, 676.268 321.288 C 686.646 326.857, 695.904 329.808, 709.804 331.978 C 727.110 334.681, 733.874 336.582, 738 339.903 C 740.886 342.226, 741.500 343.384, 741.500 346.502 C 741.500 351.236, 738.213 353.996, 731.700 354.730 C 722.043 355.819, 712.412 351.389, 699.054 339.715 C 684.110 326.655, 662.670 321.410, 647.470 327.097 C 641.346 329.388, 628.048 338.903, 623.111 344.527 C 615.721 352.943, 612.029 364.029, 612.012 377.856 C 611.992 393.459, 615.454 403.146, 626 417 C 633.251 426.525, 637.833 430.642, 649.852 438.432 C 663.246 447.113, 672.131 450.424, 694 454.888 C 720.350 460.265, 743.228 460.331, 768.301 455.102 C 793.103 449.929, 807.037 444.387, 820.500 434.338 C 837.984 421.289, 850.383 402.681, 858.233 377.711 C 860.218 371.397, 860.494 368.448, 860.450 354 C 860.406 339.456, 860.081 336.261, 857.713 327.043 C 853.419 310.335, 846.252 297.011, 834.818 284.483 C 824.785 273.490, 806.399 261.472, 793.567 257.521 C 764.761 248.650, 758.615 246.651, 751 243.680 C 744.211 241.032, 742.434 239.914, 742.173 238.127 C 741.673 234.703, 743.755 233, 748.441 233 C 755.468 233, 762.233 235.681, 771.070 241.968 C 794.475 258.618, 811.936 261.834, 830.859 252.979 C 842.717 247.430, 855.014 232.215, 858.587 218.672 C 862.565 203.589, 861.085 189.226, 854.093 175.066 C 847.104 160.914, 838.818 151.863, 825.500 143.831 C 808.481 133.568, 795.915 131.011, 760 130.501 C 745.975 130.302, 731.575 130.520, 728 130.986 M 728.500 142.712 C 724.937 143.202, 713.881 146.323, 705.500 149.205 C 693.429 153.355, 679 161.754, 679 164.630 C 679 165.474, 680.376 169.300, 682.057 173.131 C 685.331 180.589, 688 192.443, 688 199.523 C 688 211.700, 681.816 227.807, 673.317 237.762 C 666.500 245.747, 651.148 256, 646.008 256 C 643.207 256, 642.718 257.781, 643.978 263.402 C 647.174 277.665, 656.031 291.922, 667.560 301.365 C 673.606 306.317, 688.258 313.919, 695.500 315.862 C 697.700 316.452, 702.538 317.624, 706.250 318.467 C 713.357 320.081, 720.727 321.782, 732.785 324.590 C 750.113 328.627, 758.815 341.425, 753.412 354.928 C 751.704 359.197, 747.256 363.138, 741.250 365.705 C 735.617 368.112, 723.997 367.838, 715.550 365.098 C 706.129 362.043, 704.913 361.336, 694 352.565 C 678.699 340.269, 665.624 335.423, 654.476 337.918 C 648.027 339.361, 635.751 347.053, 631.322 352.425 C 625.416 359.590, 622.695 373.563, 624.935 385.225 C 625.598 388.676, 627.975 395.323, 630.217 399.994 C 633.643 407.132, 635.828 410.007, 643.898 417.994 C 658.791 432.733, 666.239 436.289, 697.500 443.583 C 703.289 444.934, 725.874 446.963, 735.308 446.980 C 748.812 447.005, 758.621 445.674, 776.979 441.326 C 805.451 434.583, 826.368 418.120, 839.362 392.226 C 848.351 374.314, 850.340 354.665, 845.516 331.452 C 840.166 305.714, 825.649 286.765, 802.241 274.967 C 793.395 270.509, 771.888 263.211, 756.324 259.388 C 742.925 256.096, 739.910 254.817, 734.921 250.310 C 730.172 246.019, 728 241.376, 728 235.513 C 728 230.519, 730.316 227.115, 736.375 223.206 C 740.050 220.834, 741.427 220.551, 749 220.616 C 761.590 220.724, 767.128 222.783, 780.264 232.238 C 796.563 243.971, 798.939 245.002, 809.645 244.990 C 816.873 244.982, 819.444 244.541, 823.640 242.587 C 831.961 238.713, 838.383 231.949, 844.626 220.486 C 845.229 219.378, 846.312 214.511, 847.032 209.671 C 848.685 198.559, 847.400 190.872, 841.989 179.500 C 839.069 173.363, 836.589 169.969, 831.341 164.925 C 817.345 151.474, 802.603 145.630, 776 142.987 C 767.446 142.137, 734.085 141.944, 728.500 142.712 M 459.674 145.823 C 456.877 146.363, 457.707 147.897, 465.042 155.753 C 472.754 164.010, 478.977 175.401, 480.910 184.799 C 482.312 191.614, 482.308 205.412, 480.903 212.201 C 478.792 222.397, 473.410 231.842, 465.242 239.682 L 457.760 246.864 461.130 247.390 C 462.984 247.679, 467.033 248.185, 470.129 248.515 C 474.280 248.956, 476.352 249.745, 478.017 251.519 L 480.277 253.923 480.404 325.712 C 480.547 406.970, 480.051 401.698, 488.821 415.123 C 497.374 428.217, 506.698 435.015, 521.659 439.063 C 537.452 443.338, 556.165 439.398, 567.938 429.321 C 573.497 424.563, 581.305 412.816, 584.168 404.907 L 586.486 398.500 586.993 324.785 C 587.468 255.762, 587.614 250.957, 589.284 249.285 C 590.857 247.712, 593.831 247.428, 614.284 246.898 C 640.381 246.221, 643.733 245.558, 653.741 239.089 C 660.904 234.460, 667.103 227.051, 671.387 218 C 674.292 211.861, 674.463 210.834, 674.454 199.500 C 674.446 188.275, 674.232 186.967, 671.151 179.252 C 665.837 165.950, 652.996 153.825, 639 148.897 C 632.961 146.771, 630.622 146.587, 606 146.308 C 562.147 145.810, 461.468 145.477, 459.674 145.823 M 233 147.023 C 216.718 148.999, 199.548 160.165, 192.973 173.053 C 185.070 188.544, 184.554 201.811, 191.228 217.938 C 193.685 223.876, 195.768 226.917, 200.929 232.103 C 207.933 239.140, 212.632 242.003, 220.227 243.861 C 226.640 245.430, 245.904 246.952, 260.500 247.044 C 276.005 247.141, 280.665 247.971, 286.065 251.598 C 291.228 255.065, 296.499 263.475, 300.287 274.291 C 304.683 286.842, 313.931 318.225, 315.377 325.500 C 317.654 336.955, 318.273 346.006, 316.778 345.963 C 314.747 345.905, 310.368 338.143, 307.477 329.476 C 306.014 325.089, 303.473 318.420, 301.830 314.655 C 300.188 310.890, 297.769 303.690, 296.456 298.655 C 293.445 287.112, 285.529 267.204, 282.788 264.279 C 279.528 260.802, 275.888 260.187, 254.500 259.503 C 243.500 259.151, 229.577 258.454, 223.561 257.954 C 217.544 257.454, 212.460 257.206, 212.263 257.404 C 211.541 258.125, 193.943 305.650, 184.846 331.444 C 178.786 348.626, 173.180 370.565, 172.355 380.329 C 171.126 394.864, 175.137 407.574, 184.716 419.500 C 195.538 432.973, 213.542 440.380, 229.303 437.843 C 246.893 435.011, 259.390 424.691, 266.542 407.089 C 267.834 403.909, 271.415 392.800, 274.499 382.403 C 281.174 359.906, 283.580 354.091, 286.434 353.566 C 287.570 353.357, 294.350 352.685, 301.500 352.072 C 308.650 351.459, 315.711 350.695, 317.190 350.374 C 321.577 349.421, 324.495 353.268, 326.466 362.604 C 332.954 393.331, 339.225 409.357, 349.042 420.298 C 371.507 445.332, 407.233 441.668, 424.900 412.517 C 430.099 403.939, 432.147 395.441, 432.254 382 C 432.314 374.398, 431.806 368.466, 430.755 364.500 C 429.196 358.622, 427.129 351.011, 423.013 336 C 421.882 331.875, 419.677 323.775, 418.113 318 C 416.549 312.225, 413.798 302.100, 411.999 295.500 C 410.201 288.900, 407.305 277.895, 405.563 271.044 L 402.397 258.588 396.812 256.931 C 390.155 254.954, 385.921 252.342, 388.077 251.542 C 394.256 249.247, 407.586 246.773, 418.137 245.962 C 439.787 244.298, 451.776 238.084, 461.445 223.516 C 466.834 215.399, 468.147 210.823, 468.110 200.295 C 468.024 175.549, 456.905 158.068, 435.508 149.036 L 429.500 146.500 334.500 146.367 C 282.250 146.294, 236.575 146.589, 233 147.023 M 277.446 448.087 C 277.077 448.684, 275.772 453.072, 274.547 457.837 C 273.321 462.601, 269.772 475.706, 266.659 486.958 C 263.547 498.209, 261 508.836, 261 510.573 C 261 516.201, 263.915 518.459, 276.244 522.378 C 317.675 535.549, 334.078 540.260, 340.158 540.735 C 346.705 541.247, 346.841 541.207, 348.258 538.378 C 349.051 536.795, 350.928 530.550, 352.429 524.500 C 353.929 518.450, 356.064 510.575, 357.172 507 C 362.108 491.080, 365 480.301, 365 477.825 C 365 476.138, 364.048 474.396, 362.430 473.124 C 359.067 470.478, 336.117 461.462, 327.887 459.554 C 324.344 458.732, 313.357 455.572, 303.472 452.531 C 285.873 447.118, 278.792 445.909, 277.446 448.087 M 285 461.595 C 285 462.472, 284.127 466.184, 283.060 469.845 C 281.530 475.093, 276.431 492.763, 272.287 507.178 C 271.901 508.521, 273.274 509.289, 279.152 511.014 C 283.193 512.201, 292.501 514.970, 299.835 517.168 C 307.169 519.366, 313.290 521.015, 313.438 520.832 C 314.096 520.018, 325.907 474.694, 325.974 472.725 C 325.988 472.299, 324.762 471.472, 323.250 470.886 C 320.062 469.652, 286.868 460.025, 285.750 460.010 C 285.337 460.004, 285 460.718, 285 461.595 M 804.613 484.750 C 794.082 495.063, 780.637 508.031, 774.733 513.570 C 764.355 523.306, 764 523.780, 764 527.886 C 764 536.063, 765.832 537.134, 783 538.989 C 788.775 539.613, 799.148 541.418, 806.052 543 C 818.285 545.802, 842.804 549.745, 854.138 550.733 C 858.934 551.151, 860.091 550.909, 861.888 549.112 C 863.050 547.950, 864 545.885, 864 544.523 C 864 540.820, 859.791 530.338, 852.586 516.095 C 849.049 509.104, 843.168 495.985, 839.517 486.942 C 831.428 466.908, 830.880 466, 826.856 466 C 824.183 466, 821.132 468.572, 804.613 484.750 M 598.500 468.871 C 595.012 471.037, 592.331 473.923, 588.642 479.482 C 586.486 482.732, 586 484.624, 586 489.772 C 586 497.323, 588.126 502.074, 593.797 507.198 C 598.840 511.754, 603.722 513.333, 611.111 512.798 C 622.388 511.983, 630 503.484, 630 491.709 C 630 482.741, 628.336 478.487, 622.923 473.621 C 615.610 467.046, 604.818 464.947, 598.500 468.871 M 434.682 471.987 C 429.001 475.589, 424.480 482.370, 422.998 489.512 C 421.397 497.219, 423.345 503.438, 429.362 509.838 C 434.007 514.778, 439.014 517, 445.500 517 C 460.310 517, 470.386 502.811, 467.036 486.673 C 463.985 471.978, 446.914 464.229, 434.682 471.987 M 335.189 485.750 C 333.496 491.113, 330.920 500, 329.463 505.500 C 328.007 511, 326.182 517.017, 325.408 518.872 C 323.506 523.428, 323.636 525, 325.917 525 C 326.971 525, 329.934 525.900, 332.500 527 C 335.066 528.100, 337.572 529, 338.069 529 C 339.455 529, 341.505 523.377, 344.485 511.400 C 345.977 505.405, 348.278 497.384, 349.599 493.576 C 352.776 484.414, 352.716 482.218, 349.250 480.924 C 347.738 480.360, 344.799 479.021, 342.719 477.949 C 340.640 476.877, 338.787 476, 338.603 476 C 338.419 476, 336.882 480.387, 335.189 485.750 M 185.086 479.717 C 179.992 481.516, 173.244 487.842, 170.710 493.192 C 164.747 505.783, 167.467 518.840, 178.031 528.338 C 186.564 536.010, 197.113 537.282, 207.821 531.932 C 221.101 525.296, 225.874 513.684, 221.500 498.654 C 219.498 491.774, 212.057 482.383, 206.668 479.936 C 201.527 477.602, 191.365 477.499, 185.086 479.717 M 602.735 481.126 C 597.646 484.922, 595.483 491.223, 597.698 495.797 C 602.196 505.082, 619 502.494, 619 492.516 C 619 487.265, 616.587 482.355, 613.128 480.566 C 609.084 478.475, 606.071 478.637, 602.735 481.126 M 685.655 481.459 C 675.550 485.061, 670.593 496.796, 673.998 509.052 C 675.933 516.016, 685.419 522.931, 693.101 522.978 C 701.246 523.028, 710.834 517.371, 713.377 511.017 C 716.504 503.201, 715.062 494.703, 709.335 487.195 C 704.431 480.765, 694.409 478.337, 685.655 481.459 M 439.722 483.135 C 434.489 487.039, 432.436 494.353, 435.456 498.337 C 439.720 503.965, 447.405 506.623, 451.014 503.718 C 457.417 498.565, 457.620 489.880, 451.481 483.750 C 448.130 480.403, 443.695 480.172, 439.722 483.135 M 800.971 504.007 C 788.887 516.212, 779 526.315, 779 526.458 C 779 526.742, 783.925 527.547, 813 532.012 C 843.863 536.751, 847.143 537.190, 847.677 536.656 C 847.954 536.379, 846.599 532.631, 844.665 528.326 C 842.732 524.022, 839.343 516, 837.135 510.500 C 830.639 494.321, 825.201 482.567, 824.032 482.177 C 823.433 481.978, 813.055 491.801, 800.971 504.007 M 193 490.722 C 187.824 491.490, 184.854 493.392, 182.462 497.475 C 178.004 505.081, 179.746 515.416, 186.333 520.440 C 190.621 523.711, 199.768 524.049, 204.580 521.114 C 212.705 516.160, 213.214 503.586, 205.614 495.535 C 201.483 491.158, 198.287 489.939, 193 490.722 M 686.605 494.042 C 678.196 501.425, 683.141 511.450, 695.194 511.453 C 705.785 511.457, 707.303 497.514, 697.295 492.158 C 693.696 490.232, 690.254 490.838, 686.605 494.042" stroke="none" fill="#125474" fill-rule="evenodd"/></svg>